<svg width="108" height="95" viewBox="0 0 108 95" fill="none" xmlns="http://www.w3.org/2000/svg">
<g clip-path="url(#clip0_2668_2049)">
<path d="M9.2402 82.5911V81.7811C9.01483 82.064 8.72426 82.2881 8.39337 82.4342C8.06248 82.5804 7.70113 82.6441 7.34021 82.6201C7.11925 82.6432 6.89589 82.62 6.68439 82.552C6.47288 82.4841 6.27786 82.3728 6.11172 82.2253C5.94559 82.0778 5.812 81.8973 5.71945 81.6953C5.62691 81.4933 5.57746 81.2742 5.57422 81.0521C5.57422 80.1441 6.29422 79.5722 7.51822 79.5632H9.22421V79.2371C9.22421 78.4771 8.75022 78.0141 7.83322 78.0141C7.23449 78.0344 6.65771 78.2445 6.18622 78.6141L5.8602 78.0731C6.47119 77.6133 7.21653 77.3673 7.9812 77.3731C9.2652 77.3731 9.9752 78.0531 9.9812 79.1581L9.99121 82.5911H9.2402ZM9.23022 80.8061V80.1741H7.61221C6.74421 80.1741 6.29022 80.4391 6.29022 81.0231C6.29022 81.6071 6.75422 81.9791 7.48422 81.9791C7.86569 82.0138 8.24748 81.9162 8.56543 81.7026C8.88338 81.4889 9.11813 81.1724 9.23022 80.8061Z" fill="black"/>
<path d="M17.47 75.2695V82.5895H16.7V81.4775C16.5081 81.8425 16.2159 82.145 15.8579 82.3496C15.4999 82.5542 15.0909 82.6523 14.6791 82.6325C14.0052 82.5968 13.3707 82.3044 12.9058 81.8152C12.4409 81.3261 12.1811 80.6775 12.1797 80.0027C12.1783 79.328 12.4354 78.6782 12.8982 78.1872C13.361 77.6961 13.9944 77.4011 14.6681 77.3625C15.0828 77.3424 15.4946 77.4414 15.8548 77.6479C16.2151 77.8543 16.5087 78.1595 16.7011 78.5275V75.2725L17.47 75.2695ZM16.7 80.0045C16.6838 79.6361 16.5596 79.2806 16.3429 78.9822C16.1262 78.6839 15.8266 78.4558 15.4814 78.3263C15.1361 78.1968 14.7604 78.1717 14.4009 78.254C14.0415 78.3364 13.7142 78.5225 13.4597 78.7894C13.2052 79.0562 13.0347 79.392 12.9695 79.7549C12.9043 80.1179 12.9472 80.492 13.0929 80.8307C13.2386 81.1695 13.4807 81.4579 13.789 81.6602C14.0973 81.8625 14.4583 81.9697 14.8271 81.9685C15.0816 81.9713 15.334 81.9217 15.5686 81.8228C15.8032 81.7238 16.0149 81.5778 16.1906 81.3936C16.3664 81.2094 16.5024 80.991 16.5902 80.7521C16.678 80.5131 16.7157 80.2587 16.7011 80.0045H16.7Z" fill="black"/>
<path d="M23.6162 82.5911V81.7811C23.3908 82.064 23.1003 82.2881 22.7694 82.4342C22.4385 82.5804 22.0771 82.6441 21.7162 82.6201C21.4952 82.6432 21.2719 82.62 21.0604 82.552C20.8489 82.4841 20.6538 82.3728 20.4877 82.2253C20.3216 82.0778 20.188 81.8973 20.0955 81.6953C20.0029 81.4933 19.9534 81.2742 19.9502 81.0521C19.9502 80.1441 20.6702 79.5722 21.8942 79.5632H23.6002V79.2371C23.6002 78.4771 23.1262 78.0141 22.2092 78.0141C21.6105 78.0344 21.0337 78.2445 20.5622 78.6141L20.2362 78.0731C20.8472 77.6133 21.5925 77.3673 22.3572 77.3731C23.6412 77.3731 24.3512 78.0531 24.3572 79.1581L24.3662 82.5911H23.6162ZM23.6062 80.8061V80.1741H21.9882C21.1202 80.1741 20.6662 80.4391 20.6662 81.0231C20.6662 81.6071 21.1302 81.9791 21.8602 81.9791C22.2412 82.0131 22.6222 81.9151 22.9396 81.7015C23.2569 81.488 23.4912 81.1719 23.6032 80.8061H23.6062Z" fill="black"/>
<path d="M32.3872 80.0047C32.4128 80.3429 32.3674 80.6826 32.2538 81.0021C32.1403 81.3216 31.9612 81.6139 31.7281 81.8601C31.4949 82.1063 31.2128 82.3009 30.8999 82.4316C30.587 82.5622 30.2502 82.626 29.9112 82.6188C29.5004 82.6382 29.0926 82.5411 28.7346 82.3387C28.3767 82.1363 28.0832 81.8368 27.8882 81.4748V84.5038H27.1182V77.4038H27.8882V78.5188C28.0807 78.1597 28.3703 77.862 28.724 77.6597C29.0777 77.4574 29.4811 77.3587 29.8882 77.3747C30.2295 77.3679 30.5685 77.4323 30.8835 77.5638C31.1985 77.6953 31.4827 77.8911 31.7178 78.1385C31.9529 78.386 32.1339 78.6798 32.2492 79.0011C32.3644 79.3224 32.4114 79.6642 32.3872 80.0047ZM31.6082 79.9858C31.5902 79.6216 31.4657 79.2708 31.2501 78.9767C31.0345 78.6827 30.7373 78.4585 30.3954 78.3318C30.0535 78.2051 29.682 78.1816 29.3269 78.2641C28.9717 78.3467 28.6487 78.5316 28.3977 78.7961C28.1468 79.0606 27.979 79.393 27.9152 79.7519C27.8514 80.1109 27.8944 80.4807 28.0388 80.8155C28.1833 81.1502 28.4228 81.4352 28.7278 81.6351C29.0327 81.8349 29.3896 81.9409 29.7542 81.9397C30.0068 81.942 30.2573 81.8923 30.4899 81.7936C30.7225 81.6949 30.9323 81.5493 31.1062 81.366C31.2801 81.1827 31.4144 80.9656 31.5008 80.7281C31.5871 80.4907 31.6237 80.238 31.6082 79.9858Z" fill="black"/>
<path d="M37.4154 82.2342C37.0717 82.4774 36.6625 82.6113 36.2414 82.6182C35.4814 82.6292 34.9194 82.1742 34.9194 81.1482V78.1602H34.1694V77.5602H34.9194V76.1992H35.6794V77.5602H37.3264V78.1602H35.6794V81.0222C35.6794 81.6532 35.9254 81.9092 36.3704 81.9092C36.6647 81.891 36.9498 81.7992 37.1994 81.6422L37.4154 82.2342Z" fill="black"/>
<path d="M40.4452 75.9107C40.4405 76.0084 40.4072 76.1027 40.3495 76.1817C40.2918 76.2607 40.2122 76.321 40.1205 76.3552C40.0288 76.3894 39.9291 76.3959 39.8338 76.374C39.7384 76.3521 39.6516 76.3027 39.584 76.2319C39.5165 76.1611 39.4712 76.072 39.4538 75.9758C39.4364 75.8795 39.4476 75.7802 39.486 75.6902C39.5245 75.6003 39.5884 75.5236 39.6701 75.4696C39.7517 75.4157 39.8474 75.3868 39.9452 75.3867C40.013 75.3866 40.08 75.4003 40.1423 75.4269C40.2046 75.4536 40.2608 75.4926 40.3075 75.5416C40.3543 75.5906 40.3906 75.6486 40.4143 75.712C40.4379 75.7755 40.4485 75.8431 40.4452 75.9107ZM40.3262 77.4008V82.5908H39.5662V77.4008H40.3262Z" fill="black"/>
<path d="M43.111 77.4004L44.769 81.8104L46.416 77.4004H47.195L45.153 82.5904H44.353L42.292 77.4004H43.111Z" fill="black"/>
<path d="M53.4054 80.281H49.1634C49.1975 80.7529 49.4127 81.1932 49.764 81.5101C50.1153 81.8269 50.5755 81.9956 51.0484 81.981C51.3473 81.9872 51.6444 81.9318 51.9211 81.8182C52.1977 81.7047 52.448 81.5354 52.6563 81.321L53.0804 81.765C52.812 82.0476 52.4868 82.2701 52.1263 82.418C51.7657 82.5659 51.3779 82.6357 50.9884 82.623C50.2924 82.6243 49.6245 82.3491 49.1315 81.858C48.6384 81.3668 48.3607 80.6999 48.3594 80.004C48.3581 79.308 48.6332 78.6401 49.1244 78.1471C49.6156 77.6541 50.2824 77.3763 50.9784 77.375C52.6564 77.373 53.4844 78.525 53.4054 80.281ZM52.7144 79.669C52.7176 79.4439 52.6742 79.2205 52.5871 79.0129C52.5 78.8053 52.371 78.618 52.2081 78.4625C52.0452 78.3071 51.8521 78.1869 51.6407 78.1096C51.4292 78.0322 51.2041 77.9994 50.9793 78.013C50.52 77.9955 50.0722 78.1594 49.7327 78.4692C49.3931 78.7791 49.189 79.21 49.1644 79.669H52.7144Z" fill="black"/>
<path d="M9.2402 94.4369V93.6269C9.01483 93.9098 8.72426 94.1339 8.39337 94.28C8.06248 94.4261 7.70113 94.4899 7.34021 94.4659C7.11925 94.4889 6.89589 94.4657 6.68439 94.3977C6.47288 94.3298 6.27786 94.2185 6.11172 94.071C5.94559 93.9235 5.812 93.743 5.71945 93.541C5.62691 93.339 5.57746 93.12 5.57422 92.8979C5.57422 91.9899 6.29422 91.4179 7.51822 91.4079H9.22421V91.0819C9.22421 90.3219 8.75022 89.8589 7.83322 89.8589C7.23446 89.879 6.65764 90.0892 6.18622 90.4589L5.8602 89.9168C6.47119 89.457 7.21653 89.2111 7.9812 89.2169C9.2652 89.2169 9.9752 89.8969 9.9812 91.0019L9.99121 94.4359L9.2402 94.4369ZM9.23022 92.6519V92.0169H7.61221C6.74421 92.0169 6.29022 92.2818 6.29022 92.8648C6.29022 93.4478 6.75422 93.8209 7.48422 93.8209C7.86518 93.8558 8.24654 93.7587 8.56442 93.5459C8.8823 93.333 9.11738 93.0174 9.23022 92.6519Z" fill="black"/>
<path d="M15.3313 89.2163V89.9653C15.0948 89.9468 14.8571 89.9771 14.6329 90.0543C14.4086 90.1315 14.2027 90.254 14.0278 90.4142C13.8529 90.5744 13.7128 90.7688 13.6162 90.9854C13.5196 91.202 13.4686 91.4362 13.4663 91.6733V94.4353H12.6963V89.2453H13.4663V90.3993C13.6203 90.0361 13.8812 89.7284 14.2144 89.5171C14.5475 89.3057 14.9371 89.2009 15.3313 89.2163Z" fill="black"/>
<path d="M19.4381 89.9065C18.9408 89.9317 18.4721 90.1471 18.1291 90.508C17.786 90.869 17.5947 91.3479 17.5947 91.8459C17.5947 92.3439 17.786 92.8229 18.1291 93.1839C18.4721 93.5448 18.9408 93.7602 19.4381 93.7854C19.7392 93.7998 20.0397 93.7469 20.3179 93.6307C20.596 93.5144 20.8448 93.3378 21.0461 93.1135L21.4901 93.5685C21.2334 93.8654 20.9129 94.1006 20.5526 94.2564C20.1922 94.4122 19.8014 94.4847 19.4091 94.4684C18.7132 94.4684 18.0458 94.192 17.5537 93.6999C17.0616 93.2078 16.7852 92.5404 16.7852 91.8445C16.7852 91.1485 17.0616 90.4811 17.5537 89.989C18.0458 89.4969 18.7132 89.2204 19.4091 89.2204C19.7772 89.2075 20.1441 89.269 20.4877 89.4013C20.8314 89.5336 21.1448 89.734 21.4091 89.9905L20.9851 90.5224C20.7808 90.3227 20.5388 90.1654 20.2733 90.0596C20.0078 89.9539 19.7239 89.9019 19.4381 89.9065Z" fill="black"/>
<path d="M28.6962 91.2391V94.4391H27.9261V91.4391C27.945 91.2409 27.92 91.041 27.8529 90.8536C27.7858 90.6662 27.6783 90.4958 27.538 90.3546C27.3977 90.2133 27.2281 90.1047 27.0411 90.0363C26.8542 89.968 26.6545 89.9416 26.4562 89.959C26.209 89.9552 25.9637 90.0041 25.7369 90.1025C25.5101 90.2008 25.3068 90.3464 25.1407 90.5295C24.9745 90.7126 24.8493 90.929 24.7733 91.1643C24.6974 91.3996 24.6724 91.6484 24.7002 91.894V94.4391H23.9302V87.1211H24.7002V90.4211C24.8714 90.0361 25.1581 89.7138 25.5205 89.4988C25.8829 89.2838 26.3032 89.1868 26.7232 89.2211C26.9918 89.199 27.2619 89.2365 27.5144 89.3307C27.7668 89.425 27.9954 89.5738 28.1838 89.7665C28.3722 89.9592 28.5158 90.1911 28.6044 90.4456C28.6929 90.7001 28.7243 90.971 28.6962 91.2391Z" fill="black"/>
<path d="M32.2823 87.757C32.2823 87.8904 32.2294 88.0183 32.135 88.1126C32.0407 88.2069 31.9128 88.2599 31.7794 88.2599C31.646 88.2599 31.518 88.2069 31.4237 88.1126C31.3293 88.0183 31.2764 87.8904 31.2764 87.757C31.2764 87.6236 31.3293 87.4956 31.4237 87.4012C31.518 87.3069 31.646 87.2539 31.7794 87.2539C31.9128 87.2539 32.0407 87.3069 32.135 87.4012C32.2294 87.4956 32.2823 87.6236 32.2823 87.757ZM32.1634 89.2469V94.437H31.4034V89.2469H32.1634Z" fill="black"/>
<path d="M37.7104 94.0799C37.3665 94.323 36.9574 94.4569 36.5364 94.4639C35.7764 94.4749 35.2144 94.0209 35.2144 92.9939V90.0059H34.4644V89.4059H35.2144V88.0449H35.9744V89.4059H37.6214V90.0059H35.9734V92.8679C35.9734 93.4989 36.2194 93.7549 36.6644 93.7549C36.9584 93.7365 37.2432 93.6455 37.4934 93.4899L37.7104 94.0799Z" fill="black"/>
<path d="M44.2584 92.1277H40.0164C40.0508 92.5995 40.2661 93.0397 40.6173 93.3565C40.9686 93.6733 41.4286 93.8421 41.9014 93.8277C42.2004 93.8339 42.4974 93.7785 42.7741 93.6649C43.0507 93.5514 43.301 93.3821 43.5094 93.1677L43.9334 93.6107C43.6651 93.8934 43.3399 94.116 42.9793 94.2639C42.6188 94.4118 42.231 94.4816 41.8414 94.4687C41.1455 94.47 40.4775 94.1948 39.9845 93.7037C39.4915 93.2125 39.2137 92.5457 39.2124 91.8497C39.2111 91.1538 39.4863 90.4858 39.9775 89.9928C40.4686 89.4998 41.1355 89.222 41.8314 89.2207C43.5144 89.2167 44.3414 90.3717 44.2584 92.1277ZM43.5674 91.5157C43.5706 91.2906 43.5273 91.0673 43.4402 90.8597C43.353 90.6521 43.224 90.4647 43.0612 90.3093C42.8983 90.1538 42.7051 90.0337 42.4937 89.9563C42.2823 89.879 42.0572 89.8461 41.8324 89.8598C41.3729 89.842 40.9249 90.0057 40.5851 90.3156C40.2453 90.6254 40.041 91.0565 40.0164 91.5157H43.5674Z" fill="black"/>
<path d="M48.6574 89.9065C48.1601 89.9317 47.6914 90.1471 47.3483 90.508C47.0052 90.869 46.8139 91.3479 46.8139 91.8459C46.8139 92.3439 47.0052 92.8229 47.3483 93.1839C47.6914 93.5448 48.1601 93.7602 48.6574 93.7854C48.9585 93.7997 49.259 93.7468 49.5371 93.6306C49.8152 93.5144 50.064 93.3377 50.2654 93.1135L50.7084 93.5685C50.4516 93.8654 50.1311 94.1006 49.7708 94.2564C49.4105 94.4122 49.0197 94.4847 48.6274 94.4684C47.9315 94.4684 47.264 94.192 46.7719 93.6999C46.2798 93.2078 46.0034 92.5404 46.0034 91.8445C46.0034 91.1485 46.2798 90.4811 46.7719 89.989C47.264 89.4969 47.9315 89.2204 48.6274 89.2204C48.9955 89.2075 49.3623 89.269 49.706 89.4013C50.0497 89.5336 50.3631 89.734 50.6274 89.9905L50.2034 90.5224C49.9991 90.3228 49.7574 90.1655 49.492 90.0598C49.2267 89.9541 48.943 89.902 48.6574 89.9065Z" fill="black"/>
<path d="M55.7861 94.0799C55.4423 94.3231 55.0331 94.4569 54.6121 94.4639C53.8521 94.4749 53.29 94.0209 53.29 92.9939V90.0059H52.54V89.4059H53.29V88.0449H54.05V89.4059H55.6971V90.0059H54.05V92.8679C54.05 93.4989 54.2961 93.7549 54.7411 93.7549C55.0351 93.7365 55.3199 93.6455 55.5701 93.4899L55.7861 94.0799Z" fill="black"/>
<path d="M62.4483 89.2472V94.4372H61.6783V93.2632C61.5162 93.6444 61.2386 93.9652 60.8847 94.1804C60.5308 94.3957 60.1184 94.4946 59.7053 94.4632C59.4387 94.4812 59.1713 94.4406 58.9221 94.3443C58.6728 94.248 58.4477 94.0983 58.2624 93.9057C58.0771 93.7131 57.9362 93.4823 57.8497 93.2294C57.7631 92.9766 57.733 92.7079 57.7613 92.4422V89.2422H58.5313V92.2422C58.5108 92.4381 58.5336 92.6362 58.5982 92.8224C58.6627 93.0085 58.7673 93.1782 58.9047 93.3194C59.0421 93.4606 59.2089 93.5699 59.3932 93.6395C59.5775 93.7091 59.7749 93.7373 59.9713 93.7222C60.2149 93.7208 60.4554 93.668 60.6771 93.5672C60.8989 93.4664 61.0968 93.32 61.2581 93.1374C61.4193 92.9548 61.5402 92.7403 61.6127 92.5078C61.6853 92.2752 61.7081 92.0301 61.6793 91.7882V89.2432L62.4483 89.2472Z" fill="black"/>
<path d="M67.947 89.2163V89.9653C67.7106 89.9468 67.4728 89.9771 67.2486 90.0543C67.0244 90.1315 66.8184 90.254 66.6435 90.4142C66.4686 90.5744 66.3285 90.7688 66.2319 90.9854C66.1353 91.202 66.0843 91.4362 66.082 91.6733V94.4353H65.312V89.2453H66.082V90.3993C66.236 90.0361 66.4969 89.7284 66.8301 89.5171C67.1632 89.3057 67.5528 89.2009 67.947 89.2163Z" fill="black"/>
<path d="M74.4522 92.1277H70.2112C70.2453 92.5995 70.4605 93.04 70.8118 93.3568C71.1631 93.6737 71.6233 93.8424 72.0962 93.8277C72.3952 93.8339 72.6922 93.7785 72.9688 93.6649C73.2454 93.5514 73.4958 93.3821 73.7042 93.1677L74.1282 93.6107C73.8599 93.8933 73.5347 94.1159 73.1741 94.2638C72.8135 94.4117 72.4257 94.4815 72.0362 94.4687C71.6916 94.4693 71.3503 94.402 71.0317 94.2707C70.7131 94.1394 70.4235 93.9466 70.1794 93.7034C69.6865 93.2121 69.4089 92.5451 69.4077 91.8492C69.4065 91.1533 69.6818 90.4854 70.1731 89.9924C70.6644 89.4995 71.3313 89.2219 72.0272 89.2207C73.7032 89.2167 74.5302 90.3717 74.4522 92.1277ZM73.7612 91.5157C73.7643 91.2906 73.7208 91.0674 73.6336 90.8599C73.5464 90.6523 73.4175 90.465 73.2546 90.3096C73.0918 90.1542 72.8987 90.034 72.6873 89.9566C72.476 89.8792 72.2509 89.8463 72.0262 89.8598C71.5667 89.8423 71.1188 90.0063 70.7792 90.3163C70.4396 90.6263 70.2355 91.0575 70.2112 91.5167L73.7612 91.5157Z" fill="black"/>
<path d="M24.8999 9.46855C24.9781 9.50847 25.0449 9.56755 25.094 9.64031C25.1432 9.71306 25.173 9.79709 25.1809 9.88454C25.1785 9.98789 25.1404 10.0872 25.0729 10.1655L24.7119 10.6206C24.657 10.6837 24.5964 10.7415 24.5309 10.7935C24.4757 10.8372 24.4073 10.8609 24.3369 10.8606C24.139 10.8338 23.9531 10.7501 23.8019 10.6196C23.0479 10.0702 22.2222 9.62672 21.3479 9.30156C20.4832 8.9845 19.5689 8.824 18.6479 8.82756C17.8517 8.8236 17.0589 8.93164 16.2929 9.14855C15.5584 9.35542 14.8544 9.65801 14.1989 10.0485C13.5557 10.4343 12.9643 10.9004 12.4389 11.4356C11.9165 11.9668 11.4624 12.561 11.0869 13.2045C10.7121 13.8484 10.4198 14.5368 10.2169 15.2536C10.0118 15.9771 9.90818 16.7255 9.90887 17.4776C9.90837 18.2421 10.0189 19.0027 10.2369 19.7356C10.4517 20.4631 10.7574 21.1606 11.1469 21.8115C11.5351 22.4594 12.0005 23.0578 12.5329 23.5936C13.0603 24.1273 13.6487 24.5972 14.2859 24.9935C14.9168 25.3859 15.5962 25.6945 16.3069 25.9115C17.0181 26.1298 17.7579 26.2403 18.5019 26.2395C18.9756 26.2385 19.4483 26.194 19.9139 26.1066C20.4035 26.0169 20.8848 25.8868 21.3529 25.7175C21.8301 25.5467 22.2932 25.3387 22.7379 25.0955C23.1771 24.858 23.5918 24.5777 23.9759 24.2586C24.0711 24.1823 24.1889 24.1397 24.3109 24.1376C24.4156 24.1454 24.5164 24.1805 24.6032 24.2395C24.6901 24.2984 24.76 24.3791 24.8059 24.4736L25.0059 24.7945C25.0668 24.8953 25.0993 25.0108 25.0999 25.1286C25.0991 25.2267 25.0743 25.3231 25.0275 25.4094C24.9808 25.4957 24.9136 25.5693 24.8319 25.6236C23.9567 26.293 22.9809 26.8196 21.9409 27.1835C19.9818 27.8504 17.8684 27.9176 15.8709 27.3765C15.0168 27.1427 14.1976 26.7964 13.4349 26.3465C12.6815 25.9016 11.9868 25.3641 11.3669 24.7465C10.7435 24.1296 10.2054 23.4321 9.76688 22.6726C9.3215 21.9008 8.9751 21.0759 8.73587 20.2175C8.24732 18.4415 8.24492 16.5668 8.72888 14.7895C8.96277 13.9353 9.30947 13.1161 9.75986 12.3536C10.204 11.6017 10.7416 10.9092 11.3599 10.2926C11.9785 9.67285 12.6758 9.13695 13.4339 8.69856C14.2063 8.25404 15.0314 7.90798 15.8899 7.66853C17.4273 7.24119 19.0437 7.18144 20.6086 7.49413C22.1734 7.80681 23.6427 8.48318 24.8979 9.46855H24.8999Z" fill="black"/>
<path d="M47.8918 22.5337C47.5438 23.3897 47.2105 24.206 46.8918 24.9827C46.5731 25.7594 46.2851 26.469 46.0278 27.1117C45.9952 27.2098 45.9323 27.2949 45.8482 27.355C45.7641 27.415 45.6631 27.4468 45.5598 27.4457C45.519 27.4471 45.4783 27.4427 45.4388 27.4327H44.7298C44.4438 27.4057 44.3018 27.2897 44.3018 27.0837V27.0247C44.3013 27.0036 44.3061 26.9826 44.3158 26.9637C44.3778 26.7577 44.4428 26.5637 44.5098 26.3947C44.5768 26.2257 44.6418 26.0617 44.7038 25.9187L52.2258 7.90471C52.2685 7.80923 52.3225 7.71927 52.3868 7.63674C52.4249 7.59367 52.4727 7.56024 52.5263 7.5392C52.5798 7.51817 52.6376 7.51013 52.6948 7.51574H53.2438C53.303 7.50956 53.3629 7.51728 53.4186 7.53829C53.4743 7.55929 53.5244 7.593 53.5648 7.63674C53.6278 7.71674 53.6858 7.79774 53.7388 7.87774L61.5948 26.8037C61.6087 26.8449 61.6178 26.8875 61.6218 26.9307C61.6288 26.9774 61.6332 27.0245 61.6348 27.0717C61.6348 27.2857 61.4928 27.4107 61.2068 27.4457H60.4978C60.4799 27.4454 60.4621 27.4474 60.4448 27.4517C60.4272 27.4564 60.409 27.4588 60.3908 27.4587C60.2804 27.4583 60.1733 27.4214 60.0861 27.3537C59.9989 27.2861 59.9366 27.1915 59.9088 27.0847L58.0358 22.5347L57.3528 20.8617L52.9898 10.1677L48.5898 20.8617L47.8918 22.5337Z" fill="black"/>
<path d="M95.926 8.01088C95.9221 7.94774 95.932 7.88449 95.9552 7.82564C95.9784 7.76678 96.0143 7.71376 96.0603 7.67033C96.1063 7.62691 96.1614 7.59414 96.2214 7.57436C96.2815 7.55458 96.3452 7.54825 96.408 7.55586H97.008C97.3107 7.55586 97.4624 7.69888 97.463 7.98488V27.0039C97.4654 27.0672 97.4537 27.1303 97.4288 27.1886C97.404 27.2469 97.3667 27.299 97.3194 27.3412C97.2721 27.3834 97.2161 27.4147 97.1554 27.4328C97.0947 27.4508 97.0307 27.4553 96.968 27.4459H96.3391C96.2538 27.4474 96.1693 27.4288 96.0925 27.3916C96.0157 27.3544 95.9488 27.2997 95.897 27.2319L82.408 10.1399V26.9669C82.4166 27.0333 82.4096 27.1009 82.3875 27.1642C82.3655 27.2275 82.329 27.2848 82.281 27.3315C82.2329 27.3783 82.1747 27.4132 82.1109 27.4336C82.047 27.454 81.9793 27.4592 81.913 27.4489H81.351C81.2855 27.4582 81.2188 27.4522 81.1561 27.4313C81.0933 27.4104 81.0363 27.3752 80.9895 27.3284C80.9427 27.2816 80.9075 27.2246 80.8866 27.1618C80.8657 27.0991 80.8597 27.0323 80.869 26.9669V8.05089C80.8659 7.95414 80.875 7.85735 80.896 7.76286C80.907 7.72818 80.927 7.69701 80.9539 7.67244C80.9807 7.64787 81.0135 7.63079 81.049 7.62288C81.1758 7.59055 81.3062 7.57475 81.437 7.57588C81.611 7.57588 81.85 7.56886 82.154 7.56886C82.2038 7.56936 82.2529 7.58169 82.2971 7.60481C82.3412 7.62793 82.3792 7.66117 82.408 7.70186C83.4614 9.03052 84.5591 10.4135 85.7011 11.8509C86.8431 13.2882 87.9964 14.7359 89.161 16.1939C90.325 17.6532 91.4804 19.1015 92.627 20.5389C93.7737 21.9762 94.8737 23.3589 95.927 24.6869L95.926 8.01088Z" fill="black"/>
<path d="M23.8898 59.7451C23.9572 59.7344 24.0262 59.7396 24.0911 59.7604C24.1561 59.7813 24.2153 59.817 24.2639 59.8649C24.3126 59.9127 24.3493 59.9713 24.3712 60.036C24.393 60.1006 24.3994 60.1695 24.3898 60.2371V60.767C24.393 60.8337 24.3827 60.9004 24.3597 60.9631C24.3367 61.0258 24.3014 61.0832 24.2558 61.132C24.2087 61.1793 24.1523 61.2162 24.0901 61.2403C24.0279 61.2644 23.9614 61.2752 23.8948 61.272H9.64879C9.53809 61.278 9.4282 61.2501 9.33378 61.192C9.25762 61.1381 9.20112 61.0609 9.1728 60.9721C9.13943 60.8652 9.12158 60.754 9.11979 60.642C9.11979 60.518 9.1128 60.383 9.1128 60.242C9.11237 60.1555 9.12381 60.0694 9.1468 59.986C9.17153 59.9023 9.2206 59.8278 9.28779 59.772L22.2878 42.9351H10.1078C10.0386 42.945 9.96796 42.9385 9.90162 42.9164C9.83529 42.8942 9.77503 42.8569 9.72563 42.8074C9.67622 42.7579 9.63903 42.6976 9.61702 42.6312C9.595 42.5649 9.58877 42.4943 9.5988 42.4251V41.863C9.5988 41.5417 9.76847 41.381 10.1078 41.381H23.9348C24.0681 41.3774 24.1976 41.4258 24.2958 41.5161C24.3454 41.5617 24.3844 41.6177 24.41 41.6801C24.4355 41.7424 24.4471 41.8097 24.4438 41.877V42.505C24.448 42.5735 24.4383 42.6421 24.4153 42.7067C24.3922 42.7714 24.3564 42.8307 24.3098 42.881L11.3348 59.7451H23.8898Z" fill="black"/>
<path d="M60.0861 59.7451C60.1531 59.7352 60.2215 59.7411 60.2858 59.7623C60.3502 59.7835 60.4087 59.8195 60.4567 59.8672C60.5047 59.9149 60.541 59.9732 60.5626 60.0374C60.5842 60.1016 60.5905 60.17 60.5811 60.2371V60.767C60.5844 60.8337 60.5743 60.9003 60.5515 60.963C60.5287 61.0257 60.4935 61.0831 60.4481 61.132C60.401 61.1792 60.3446 61.216 60.2824 61.2401C60.2202 61.2642 60.1537 61.2751 60.0871 61.272H45.8441C45.734 61.278 45.6248 61.2501 45.5311 61.192C45.4543 61.1389 45.3975 61.0614 45.3701 60.9721C45.336 60.8653 45.3175 60.7541 45.3151 60.642C45.3151 60.518 45.3081 60.383 45.3081 60.242C45.3077 60.1555 45.3191 60.0694 45.3421 59.986C45.3668 59.9025 45.4155 59.8281 45.4821 59.772L58.4821 42.9351H46.3001C46.2309 42.9447 46.1604 42.9382 46.0942 42.916C46.028 42.8937 45.9678 42.8564 45.9184 42.807C45.8691 42.7575 45.8319 42.6973 45.8098 42.631C45.7877 42.5647 45.7813 42.4942 45.7911 42.4251V41.863C45.7911 41.5417 45.9608 41.3811 46.3001 41.3811H60.1261C60.2597 41.3774 60.3895 41.4258 60.4881 41.5161C60.5373 41.562 60.5758 41.6181 60.601 41.6804C60.6262 41.7428 60.6375 41.8099 60.6341 41.877V42.505C60.6386 42.5734 60.6292 42.6421 60.6063 42.7067C60.5834 42.7714 60.5476 42.8307 60.5011 42.8811L47.5321 59.7431L60.0861 59.7451Z" fill="black"/>
<path d="M84.0881 56.3736C83.7401 57.2303 83.4068 58.0466 83.0881 58.8226C82.7694 59.5986 82.4817 60.3083 82.2251 60.9516C82.1923 61.0496 82.1295 61.1346 82.0454 61.1946C81.9613 61.2546 81.8604 61.2865 81.7571 61.2856C81.7164 61.2869 81.6756 61.2825 81.6361 61.2726H80.9271C80.6411 61.2456 80.4991 61.1296 80.4991 60.9236V60.8646C80.4985 60.8434 80.5034 60.8224 80.5131 60.8036C80.5751 60.5976 80.6401 60.4036 80.7071 60.2346C80.7741 60.0656 80.8391 59.9026 80.9011 59.7596L88.4231 41.7446C88.4658 41.6491 88.5198 41.5591 88.5841 41.4766C88.6222 41.4335 88.67 41.4001 88.7236 41.379C88.7771 41.358 88.8348 41.35 88.8921 41.3556H89.4411C89.5003 41.3494 89.5602 41.3571 89.6159 41.3781C89.6716 41.3991 89.7216 41.4328 89.7621 41.4766C89.8247 41.5566 89.8827 41.6369 89.9361 41.7176L97.7921 60.6426C97.806 60.6837 97.815 60.7263 97.8191 60.7696C97.8261 60.8163 97.8304 60.8634 97.8321 60.9106C97.8321 61.1246 97.6901 61.2496 97.4041 61.2846H96.6951C96.6772 61.2846 96.6593 61.2869 96.6421 61.2916C96.6244 61.2959 96.6063 61.298 96.5881 61.2976C96.4778 61.2972 96.3706 61.2603 96.2834 61.1926C96.1962 61.125 96.1339 61.0304 96.1061 60.9236L94.2331 56.3736L93.5501 54.7016L89.1871 44.0076L84.7871 54.7016L84.0881 56.3736Z" fill="black"/>
<path d="M99.861 68.8481H42.277C40.1504 68.8459 38.1114 68.0002 36.6076 66.4964C35.1039 64.9927 34.2581 62.9537 34.256 60.8271V41.8271C34.2542 40.0276 33.5385 38.3024 32.2661 37.03C30.9937 35.7576 29.2684 35.0419 27.469 35.0401H8.069C6.27003 35.0435 4.54572 35.7596 3.27365 37.0317C2.00159 38.3038 1.28545 40.0281 1.28201 41.8271V60.8271C1.28545 62.626 2.00159 64.3503 3.27365 65.6224C4.54572 66.8945 6.27003 67.6106 8.069 67.614H16.769V68.8481H8.069C5.94243 68.8457 3.90365 67.9998 2.39993 66.4961C0.89622 64.9924 0.0503863 62.9536 0.0480042 60.8271V41.8271C0.0503863 39.7005 0.89622 37.6617 2.39993 36.158C3.90365 34.6543 5.94243 33.8084 8.069 33.8061H27.469C29.5956 33.8082 31.6346 34.6539 33.1384 36.1577C34.6421 37.6615 35.4879 39.7004 35.49 41.8271V60.8271C35.4934 62.626 36.2096 64.3503 37.4817 65.6224C38.7537 66.8945 40.478 67.6106 42.277 67.614H99.861C101.66 67.6106 103.384 66.8945 104.656 65.6224C105.928 64.3503 106.645 62.626 106.648 60.8271V41.8271C106.645 40.0281 105.928 38.3038 104.656 37.0317C103.384 35.7596 101.66 35.0435 99.861 35.0401H78.473C76.3463 35.038 74.3074 34.1922 72.8036 32.6884C71.2999 31.1846 70.4541 29.1457 70.452 27.019V8.01904C70.4486 6.22007 69.7324 4.49579 68.4603 3.22372C67.1883 1.95166 65.464 1.23549 63.665 1.23206H8.021C6.22203 1.23549 4.49774 1.95166 3.22568 3.22372C1.95361 4.49579 1.23744 6.22007 1.23401 8.01904V17.519H0V8.01904C0.00211792 5.89239 0.847853 3.85347 2.35162 2.3497C3.85539 0.84593 5.89434 0.000164792 8.021 -0.00195312H63.666C65.7927 0.000164792 67.8316 0.84593 69.3354 2.3497C70.8391 3.85347 71.6849 5.89239 71.687 8.01904V27.019C71.6889 28.8185 72.4045 30.5437 73.6769 31.8161C74.9493 33.0885 76.6745 33.8042 78.474 33.8061H99.862C101.989 33.8082 104.028 34.6539 105.531 36.1577C107.035 37.6615 107.881 39.7004 107.883 41.8271V60.8271C107.881 62.9539 107.035 64.993 105.531 66.4968C104.027 68.0006 101.988 68.8462 99.861 68.8481Z" fill="black"/>
</g>
<defs>
<clipPath id="clip0_2668_2049">
<rect width="107.882" height="94.465" fill="white"/>
</clipPath>
</defs>
</svg>
