<svg xmlns="http://www.w3.org/2000/svg" width="107.882" height="94.465" viewBox="0 0 107.882 94.465"><g id="Group_10" data-name="Group 10" transform="translate(-279.172 -318.113)"><g id="Group_1" data-name="Group 1" transform="translate(284.742 393.383)"><path id="Path_1" data-name="Path 1" d="M309.361,691.717v-.81a2.239,2.239,0,0,1-1.9.839,1.6,1.6,0,0,1-1.766-1.568c0-.908.72-1.48,1.944-1.489h1.706v-.326c0-.76-.474-1.223-1.391-1.223a2.825,2.825,0,0,0-1.647.6l-.326-.541a3.483,3.483,0,0,1,2.121-.7c1.284,0,1.994.68,2,1.785l.01,3.433Zm-.01-1.785V689.3h-1.618c-.868,0-1.322.265-1.322.849s.464.956,1.194.956A1.668,1.668,0,0,0,309.351,689.932Z" transform="translate(-305.691 -684.396)" fill="#fff"></path><path id="Path_2" data-name="Path 2" d="M342.429,676.492v7.32h-.77V682.7a2.166,2.166,0,0,1-2.021,1.155,2.639,2.639,0,0,1-.011-5.27,2.175,2.175,0,0,1,2.033,1.165v-3.255Zm-.77,4.735a1.881,1.881,0,1,0-1.873,1.964A1.857,1.857,0,0,0,341.66,681.227Z" transform="translate(-330.529 -676.492)" fill="#fff"></path><path id="Path_3" data-name="Path 3" d="M377.8,691.717v-.81a2.239,2.239,0,0,1-1.9.839,1.6,1.6,0,0,1-1.766-1.568c0-.908.72-1.48,1.944-1.489h1.706v-.326c0-.76-.474-1.223-1.391-1.223a2.825,2.825,0,0,0-1.647.6l-.326-.541a3.483,3.483,0,0,1,2.121-.7c1.284,0,1.994.68,2,1.785l.009,3.433Zm-.01-1.785V689.3h-1.618c-.868,0-1.322.265-1.322.849s.464.956,1.194.956A1.668,1.668,0,0,0,377.787,689.932Z" transform="translate(-359.754 -684.396)" fill="#fff"></path><path id="Path_4" data-name="Path 4" d="M413.56,689.131a2.431,2.431,0,0,1-2.476,2.614,2.181,2.181,0,0,1-2.023-1.144v3.029h-.77v-7.1h.77v1.115a2.172,2.172,0,0,1,2-1.144A2.456,2.456,0,0,1,413.56,689.131Zm-.779-.019a1.862,1.862,0,1,0-1.854,1.954A1.841,1.841,0,0,0,412.781,689.112Z" transform="translate(-386.743 -684.396)" fill="#fff"></path><path id="Path_5" data-name="Path 5" d="M445.1,686.944a2.092,2.092,0,0,1-1.174.384c-.76.011-1.322-.444-1.322-1.47v-2.988h-.75v-.6h.75v-1.361h.76v1.361h1.647v.6h-1.647v2.862c0,.631.246.887.691.887a1.762,1.762,0,0,0,.829-.267Z" transform="translate(-413.255 -679.979)" fill="#fff"></path><path id="Path_6" data-name="Path 6" d="M467.958,677.574a.5.5,0,1,1-.5-.524A.5.5,0,0,1,467.958,677.574Zm-.119,1.49v5.19h-.76v-5.19Z" transform="translate(-433.083 -676.933)" fill="#fff"></path><path id="Path_7" data-name="Path 7" d="M481.357,686.636l1.658,4.41,1.647-4.41h.779l-2.042,5.19h-.8l-2.061-5.19Z" transform="translate(-443.816 -684.505)" fill="#fff"></path><path id="Path_8" data-name="Path 8" d="M514.633,689.408h-4.242a1.833,1.833,0,0,0,1.885,1.7,2.179,2.179,0,0,0,1.608-.66l.424.444a2.761,2.761,0,0,1-2.092.858,2.624,2.624,0,0,1-.01-5.248C513.884,686.5,514.712,687.652,514.633,689.408Zm-.691-.612a1.636,1.636,0,0,0-1.735-1.656,1.751,1.751,0,0,0-1.815,1.656Z" transform="translate(-466.798 -684.396)" fill="#fff"></path><path id="Path_9" data-name="Path 9" d="M309.361,748.12v-.81a2.239,2.239,0,0,1-1.9.839,1.6,1.6,0,0,1-1.766-1.568c0-.908.72-1.48,1.944-1.49h1.706v-.326c0-.76-.474-1.223-1.391-1.223a2.823,2.823,0,0,0-1.647.6l-.326-.542a3.483,3.483,0,0,1,2.121-.7c1.284,0,1.994.68,2,1.785l.01,3.434Zm-.01-1.785V745.7h-1.618c-.868,0-1.322.265-1.322.848s.464.956,1.194.956A1.668,1.668,0,0,0,309.351,746.335Z" transform="translate(-305.691 -728.953)" fill="#fff"></path><path id="Path_10" data-name="Path 10" d="M342.253,742.9v.749a1.73,1.73,0,0,0-1.865,1.708v2.762h-.77v-5.19h.77v1.154A1.943,1.943,0,0,1,342.253,742.9Z" transform="translate(-332.492 -728.953)" fill="#fff"></path><path id="Path_11" data-name="Path 11" d="M361.922,743.59a1.942,1.942,0,0,0,0,3.879,2.031,2.031,0,0,0,1.608-.672l.444.455a2.608,2.608,0,0,1-2.081.9,2.624,2.624,0,0,1,0-5.248,2.734,2.734,0,0,1,2,.77l-.424.532A2.163,2.163,0,0,0,361.922,743.59Z" transform="translate(-348.054 -728.953)" fill="#fff"></path><path id="Path_12" data-name="Path 12" d="M397.88,737.018v3.2h-.77v-3a1.357,1.357,0,0,0-1.47-1.48,1.74,1.74,0,0,0-1.756,1.935v2.545h-.77V732.9h.77v3.3A2.033,2.033,0,0,1,395.907,735,1.833,1.833,0,0,1,397.88,737.018Z" transform="translate(-374.754 -721.049)" fill="#fff"></path><path id="Path_13" data-name="Path 13" d="M429.089,733.978a.5.5,0,1,1-1.006,0,.5.5,0,1,1,1.006,0Zm-.119,1.49v5.19h-.76v-5.19Z" transform="translate(-402.377 -721.49)" fill="#fff"></path><path id="Path_14" data-name="Path 14" d="M446.507,743.347a2.094,2.094,0,0,1-1.174.384c-.76.011-1.322-.443-1.322-1.47v-2.988h-.75v-.6h.75v-1.361h.76v1.361h1.647v.6H444.77v2.862c0,.631.246.887.691.887a1.779,1.779,0,0,0,.829-.265Z" transform="translate(-414.367 -724.536)" fill="#fff"></path><path id="Path_15" data-name="Path 15" d="M471.1,745.811h-4.242a1.834,1.834,0,0,0,1.885,1.7,2.18,2.18,0,0,0,1.608-.66l.424.443a2.759,2.759,0,0,1-2.092.858,2.624,2.624,0,0,1-.01-5.248C470.356,742.9,471.183,744.055,471.1,745.811Zm-.691-.612a1.636,1.636,0,0,0-1.735-1.656,1.751,1.751,0,0,0-1.816,1.656Z" transform="translate(-432.412 -728.953)" fill="#fff"></path><path id="Path_16" data-name="Path 16" d="M501.044,743.59a1.942,1.942,0,0,0,0,3.879,2.032,2.032,0,0,0,1.608-.672l.443.455a2.608,2.608,0,0,1-2.081.9,2.624,2.624,0,0,1,0-5.248,2.734,2.734,0,0,1,2,.77l-.424.532A2.163,2.163,0,0,0,501.044,743.59Z" transform="translate(-457.957 -728.953)" fill="#fff"></path><path id="Path_17" data-name="Path 17" d="M532.57,743.347a2.093,2.093,0,0,1-1.174.384c-.76.011-1.322-.443-1.322-1.47v-2.988h-.75v-.6h.75v-1.361h.76v1.361h1.647v.6h-1.647v2.862c0,.631.246.887.691.887a1.78,1.78,0,0,0,.829-.265Z" transform="translate(-482.354 -724.536)" fill="#fff"></path><path id="Path_18" data-name="Path 18" d="M558.872,743.039v5.19h-.77v-1.174a1.981,1.981,0,0,1-1.973,1.2,1.831,1.831,0,0,1-1.944-2.021v-3.2h.77v3a1.344,1.344,0,0,0,1.44,1.48,1.73,1.73,0,0,0,1.708-1.934v-2.545Z" transform="translate(-501.994 -729.062)" fill="#fff"></path><path id="Path_19" data-name="Path 19" d="M592.775,742.9v.749a1.73,1.73,0,0,0-1.865,1.708v2.762h-.77v-5.19h.77v1.154A1.943,1.943,0,0,1,592.775,742.9Z" transform="translate(-530.398 -728.953)" fill="#fff"></path><path id="Path_20" data-name="Path 20" d="M614.841,745.811H610.6a1.833,1.833,0,0,0,1.885,1.7,2.18,2.18,0,0,0,1.608-.66l.424.443a2.76,2.76,0,0,1-2.092.858,2.624,2.624,0,0,1-.009-5.248C614.092,742.9,614.919,744.055,614.841,745.811Zm-.691-.612a1.637,1.637,0,0,0-1.735-1.656A1.751,1.751,0,0,0,610.6,745.2Z" transform="translate(-545.959 -728.953)" fill="#fff"></path></g><g id="Group_8" data-name="Group 8" transform="translate(287.542 325.415)"><g id="Group_2" data-name="Group 2" transform="translate(0 0)"><path id="Path_21" data-name="Path 21" d="M335.552,355.048a.519.519,0,0,1,.281.416.446.446,0,0,1-.108.281l-.361.455a1.363,1.363,0,0,1-.181.173.31.31,0,0,1-.194.067,1.03,1.03,0,0,1-.535-.241A10.21,10.21,0,0,0,332,354.881a7.756,7.756,0,0,0-2.7-.474,8.489,8.489,0,0,0-2.355.321,8.7,8.7,0,0,0-2.094.9,8.835,8.835,0,0,0-1.76,1.387,8.973,8.973,0,0,0-1.352,1.769,8.883,8.883,0,0,0-.87,2.049,8.129,8.129,0,0,0-.308,2.224,7.9,7.9,0,0,0,.328,2.258,9.016,9.016,0,0,0,.91,2.076,9.332,9.332,0,0,0,1.386,1.782,9.571,9.571,0,0,0,1.753,1.4,8.563,8.563,0,0,0,2.021.918,7.456,7.456,0,0,0,2.195.328,7.743,7.743,0,0,0,1.412-.133,9,9,0,0,0,1.439-.389,9.7,9.7,0,0,0,1.385-.622,7.571,7.571,0,0,0,1.238-.837.551.551,0,0,1,.335-.121.6.6,0,0,1,.495.336l.2.321a.651.651,0,0,1,.094.334.6.6,0,0,1-.268.495,10.427,10.427,0,0,1-2.891,1.56,10.4,10.4,0,0,1-6.07.193,9.986,9.986,0,0,1-2.436-1.03,10.486,10.486,0,0,1-2.068-1.6,9.837,9.837,0,0,1-1.6-2.074,10.612,10.612,0,0,1-1.031-2.455,10.281,10.281,0,0,1-.007-5.428,9.965,9.965,0,0,1,1.031-2.436,10.338,10.338,0,0,1,1.6-2.061,10.016,10.016,0,0,1,2.074-1.594,10.673,10.673,0,0,1,2.456-1.03,10.175,10.175,0,0,1,9.008,1.8Z" transform="translate(-319.022 -352.881)" fill="#fff"></path></g><g id="Group_3" data-name="Group 3" transform="translate(35.935 0.214)"><path id="Path_22" data-name="Path 22" d="M493.707,368.916q-.522,1.284-1,2.449t-.864,2.129a.488.488,0,0,1-.468.334.433.433,0,0,1-.121-.013h-.709c-.286-.027-.428-.143-.428-.349v-.059a.126.126,0,0,1,.014-.061c.062-.206.127-.4.194-.569s.132-.333.194-.476l7.522-18.014a1.3,1.3,0,0,1,.161-.268.364.364,0,0,1,.308-.121h.549a.383.383,0,0,1,.321.121c.063.08.121.161.174.241l7.856,18.926a.555.555,0,0,1,.027.127,1.242,1.242,0,0,1,.013.141c0,.214-.142.339-.428.374h-.709a.2.2,0,0,0-.053.006.209.209,0,0,1-.054.007.5.5,0,0,1-.482-.374l-1.873-4.55-.683-1.673-4.363-10.694-4.4,10.694Z" transform="translate(-490.12 -353.898)" fill="#fff"></path></g><g id="Group_4" data-name="Group 4" transform="translate(72.499 0.254)"><path id="Path_23" data-name="Path 23" d="M679.268,354.544a.431.431,0,0,1,.482-.455h.6q.454,0,.455.429v19.019a.431.431,0,0,1-.495.442h-.629a.544.544,0,0,1-.442-.214L665.75,356.673V373.5a.432.432,0,0,1-.495.482h-.562a.426.426,0,0,1-.482-.482V354.584a1.156,1.156,0,0,1,.027-.288.208.208,0,0,1,.153-.14,1.517,1.517,0,0,1,.388-.047c.174,0,.413-.007.717-.007a.315.315,0,0,1,.254.133q1.58,1.993,3.293,4.149t3.46,4.343q1.746,2.189,3.466,4.345t3.3,4.148Z" transform="translate(-664.211 -354.089)" fill="#fff"></path></g><g id="Group_5" data-name="Group 5" transform="translate(0.743 34.081)"><path id="Path_24" data-name="Path 24" d="M337.335,533.512a.436.436,0,0,1,.5.492v.53a.5.5,0,0,1-.134.365.477.477,0,0,1-.361.14H323.094a.545.545,0,0,1-.315-.08.429.429,0,0,1-.161-.22,1.17,1.17,0,0,1-.053-.33c0-.124-.007-.259-.007-.4a.945.945,0,0,1,.034-.256.44.44,0,0,1,.141-.214l13-16.837h-12.18a.45.45,0,0,1-.509-.51v-.562q0-.482.509-.482h13.827a.513.513,0,0,1,.361.135.46.46,0,0,1,.148.361v.628a.508.508,0,0,1-.134.376L324.78,533.512Z" transform="translate(-322.558 -515.149)" fill="#fff"></path></g><g id="Group_6" data-name="Group 6" transform="translate(36.939 34.081)"><path id="Path_25" data-name="Path 25" d="M509.676,533.512a.436.436,0,0,1,.495.492v.53a.5.5,0,0,1-.133.365.479.479,0,0,1-.361.14H495.434a.539.539,0,0,1-.313-.08.416.416,0,0,1-.161-.22,1.168,1.168,0,0,1-.055-.33c0-.124-.007-.259-.007-.4a.944.944,0,0,1,.034-.256.444.444,0,0,1,.14-.214l13-16.837H495.89a.451.451,0,0,1-.509-.51v-.562q0-.482.509-.482h13.826a.515.515,0,0,1,.362.135.462.462,0,0,1,.146.361v.628a.505.505,0,0,1-.133.376l-12.969,16.862Z" transform="translate(-494.899 -515.149)" fill="#fff"></path></g><g id="Group_7" data-name="Group 7" transform="translate(72.131 34.054)"><path id="Path_26" data-name="Path 26" d="M666.046,530.041q-.522,1.285-1,2.449t-.863,2.129a.489.489,0,0,1-.468.334.441.441,0,0,1-.121-.013h-.709c-.286-.027-.428-.143-.428-.349v-.059a.126.126,0,0,1,.014-.061c.062-.206.127-.4.194-.569s.132-.332.194-.475l7.522-18.015a1.3,1.3,0,0,1,.161-.268.364.364,0,0,1,.308-.121h.549a.383.383,0,0,1,.321.121q.094.12.174.241l7.856,18.925a.561.561,0,0,1,.027.127,1.236,1.236,0,0,1,.013.141c0,.214-.142.339-.428.374h-.709a.2.2,0,0,0-.053.007.209.209,0,0,1-.054.006.5.5,0,0,1-.482-.374l-1.873-4.55-.683-1.672-4.363-10.694-4.4,10.694Z" transform="translate(-662.459 -515.023)" fill="#fff"></path></g></g><g id="Group_9" data-name="Group 9" transform="translate(279.172 318.113)"><path id="Path_27" data-name="Path 27" d="M379.033,386.961H321.449a8.029,8.029,0,0,1-8.021-8.021v-19a6.794,6.794,0,0,0-6.787-6.787h-19.4a6.8,6.8,0,0,0-6.787,6.787v19a6.8,6.8,0,0,0,6.787,6.787h8.7v1.234h-8.7a8.03,8.03,0,0,1-8.021-8.021v-19a8.03,8.03,0,0,1,8.021-8.021h19.4a8.029,8.029,0,0,1,8.021,8.021v19a6.8,6.8,0,0,0,6.787,6.787h57.584a6.8,6.8,0,0,0,6.787-6.787v-19a6.8,6.8,0,0,0-6.787-6.787H357.645a8.029,8.029,0,0,1-8.021-8.021v-19a6.8,6.8,0,0,0-6.787-6.787H287.193a6.8,6.8,0,0,0-6.787,6.787v9.5h-1.234v-9.5a8.029,8.029,0,0,1,8.021-8.021h55.645a8.029,8.029,0,0,1,8.021,8.021v19a6.794,6.794,0,0,0,6.787,6.787h21.388a8.029,8.029,0,0,1,8.021,8.021v19A8.029,8.029,0,0,1,379.033,386.961Z" transform="translate(-279.172 -318.113)" fill="#d9cabf"></path></g></g></svg>