<svg width="48" height="31" viewBox="0 0 48 31" fill="none" xmlns="http://www.w3.org/2000/svg">
<path d="M11.0781 4.20181C11.1129 4.21952 11.1427 4.24573 11.1645 4.27801C11.1864 4.31029 11.1997 4.34757 11.2032 4.38636C11.2021 4.43222 11.1851 4.47629 11.1551 4.51103L10.9945 4.7129C10.9701 4.7409 10.9431 4.76658 10.914 4.78964C10.8894 4.80904 10.859 4.81953 10.8277 4.81937C10.7396 4.8075 10.6569 4.77035 10.5896 4.71246C10.2542 4.46872 9.8868 4.27198 9.49777 4.12773C9.11303 3.98706 8.70624 3.91585 8.29646 3.91743C7.94222 3.91567 7.58951 3.96361 7.24867 4.05984C6.92189 4.15162 6.60865 4.28587 6.31699 4.45912C6.03083 4.63027 5.76769 4.83706 5.53392 5.07448C5.30151 5.31017 5.09944 5.5738 4.93238 5.85929C4.76564 6.14492 4.63558 6.45034 4.54528 6.76834C4.45406 7.08933 4.40794 7.42139 4.40825 7.75502C4.40803 8.09423 4.45719 8.43167 4.55419 8.75679C4.64976 9.07956 4.7858 9.389 4.95908 9.6778C5.13179 9.96525 5.33885 10.2307 5.57574 10.4684C5.81041 10.7052 6.07219 10.9137 6.35569 11.0895C6.63643 11.2636 6.93871 11.4005 7.2549 11.4968C7.57133 11.5936 7.90051 11.6426 8.2315 11.6423C8.44228 11.6418 8.65258 11.6221 8.85975 11.5833C9.07758 11.5435 9.29173 11.4858 9.49999 11.4107C9.71232 11.3349 9.91836 11.2427 10.1162 11.1348C10.3117 11.0294 10.4962 10.905 10.667 10.7634C10.7094 10.7296 10.7618 10.7107 10.8161 10.7097C10.8627 10.7132 10.9075 10.7288 10.9462 10.755C10.9848 10.7811 11.0159 10.8169 11.0363 10.8588L11.1253 11.0012C11.1524 11.0459 11.1669 11.0971 11.1671 11.1494C11.1668 11.1929 11.1557 11.2357 11.1349 11.274C11.1142 11.3123 11.0843 11.3449 11.0479 11.369C10.6585 11.666 10.2243 11.8996 9.7616 12.0611C8.88996 12.3569 7.94964 12.3868 7.06091 12.1467C6.68091 12.043 6.31643 11.8893 5.97707 11.6898C5.64186 11.4924 5.33276 11.2539 5.05696 10.9799C4.77959 10.7062 4.54017 10.3968 4.34508 10.0598C4.14692 9.71739 3.99279 9.35144 3.88635 8.97062C3.66899 8.18268 3.66792 7.35098 3.88324 6.56248C3.98731 6.18351 4.14156 5.82007 4.34195 5.48175C4.53957 5.14821 4.77877 4.84097 5.05384 4.56738C5.32911 4.29245 5.63935 4.0547 5.97662 3.8602C6.3203 3.66299 6.6874 3.50946 7.06935 3.40323C7.75341 3.21364 8.4726 3.18713 9.16882 3.32585C9.86505 3.46458 10.5188 3.76465 11.0772 4.20181H11.0781Z" fill="#262626"/>
<path d="M21.3085 9.99815C21.1536 10.3779 21.0053 10.7401 20.8636 11.0847C20.7218 11.4292 20.5936 11.7441 20.4791 12.0292C20.4646 12.0727 20.4367 12.1105 20.3992 12.1371C20.3618 12.1637 20.3169 12.1778 20.2709 12.1774C20.2528 12.178 20.2347 12.176 20.2171 12.1716H19.9016C19.7744 12.1596 19.7112 12.1082 19.7112 12.0168V11.9906C19.711 11.9812 19.7131 11.9719 19.7174 11.9635C19.745 11.8721 19.7739 11.7861 19.8037 11.7111C19.8336 11.6361 19.8625 11.5634 19.8901 11.4999L23.2368 3.50796C23.2558 3.4656 23.2798 3.42569 23.3084 3.38907C23.3254 3.36996 23.3467 3.35513 23.3705 3.3458C23.3943 3.33647 23.42 3.3329 23.4455 3.33539H23.6897C23.7161 3.33265 23.7427 3.33608 23.7675 3.34539C23.7923 3.35471 23.8146 3.36967 23.8326 3.38907C23.8606 3.42456 23.8864 3.4605 23.91 3.49599L27.4053 11.8925C27.4115 11.9108 27.4155 11.9297 27.4173 11.9489C27.4204 11.9696 27.4224 11.9905 27.4231 12.0114C27.4231 12.1064 27.3599 12.1618 27.2327 12.1774H26.9172C26.9093 12.1772 26.9014 12.1781 26.8937 12.18C26.8858 12.1821 26.8777 12.1832 26.8696 12.1831C26.8205 12.183 26.7729 12.1666 26.7341 12.1366C26.6953 12.1066 26.6675 12.0646 26.6552 12.0172L25.8218 9.99859L25.5179 9.25636L23.5767 4.51194L21.619 9.25636L21.3085 9.99815Z" fill="#262626"/>
<path d="M42.68 3.555C42.6783 3.52699 42.6827 3.49893 42.693 3.47282C42.7034 3.44671 42.7193 3.42319 42.7398 3.40392C42.7603 3.38465 42.7847 3.37011 42.8115 3.36134C42.8382 3.35256 42.8666 3.34976 42.8945 3.35313H43.1614C43.2961 3.35313 43.3636 3.41658 43.3639 3.54347V11.9813C43.3649 12.0094 43.3597 12.0374 43.3487 12.0632C43.3376 12.0891 43.321 12.1122 43.3 12.1309C43.279 12.1497 43.254 12.1635 43.227 12.1716C43.2 12.1796 43.1715 12.1816 43.1437 12.1774H42.8638C42.8259 12.178 42.7883 12.1698 42.7541 12.1533C42.7199 12.1368 42.6902 12.1125 42.6671 12.0824L36.6655 4.49954V11.9649C36.6693 11.9944 36.6662 12.0243 36.6564 12.0524C36.6466 12.0805 36.6304 12.1059 36.609 12.1267C36.5876 12.1474 36.5617 12.1629 36.5333 12.1719C36.5049 12.181 36.4748 12.1833 36.4453 12.1787H36.1952C36.1661 12.1829 36.1364 12.1802 36.1085 12.1709C36.0806 12.1616 36.0552 12.146 36.0344 12.1253C36.0136 12.1045 35.9979 12.0792 35.9886 12.0514C35.9793 12.0235 35.9766 11.9939 35.9808 11.9649V3.57275C35.9794 3.52983 35.9834 3.48689 35.9928 3.44497C35.9977 3.42958 36.0066 3.41575 36.0185 3.40485C36.0305 3.39395 36.0451 3.38638 36.0609 3.38287C36.1173 3.36852 36.1753 3.36151 36.2335 3.36201C36.3109 3.36201 36.4172 3.3589 36.5525 3.3589C36.5747 3.35912 36.5965 3.36459 36.6162 3.37485C36.6358 3.38511 36.6527 3.39986 36.6655 3.4179C37.1342 4.00737 37.6226 4.62095 38.1307 5.25863C38.6388 5.8963 39.1519 6.53856 39.6701 7.1854C40.188 7.83284 40.702 8.4754 41.2122 9.11307C41.7224 9.75075 42.2118 10.3642 42.6805 10.9533L42.68 3.555Z" fill="#262626"/>
<path d="M10.6294 26.5074C10.6594 26.5026 10.6901 26.505 10.719 26.5142C10.7479 26.5234 10.7743 26.5393 10.7959 26.5605C10.8175 26.5818 10.8339 26.6077 10.8436 26.6364C10.8533 26.6651 10.8562 26.6957 10.8519 26.7256V26.9608C10.8533 26.9904 10.8488 27.0199 10.8385 27.0477C10.8283 27.0756 10.8125 27.101 10.7923 27.1227C10.7713 27.1437 10.7462 27.16 10.7186 27.1707C10.6909 27.1814 10.6613 27.1862 10.6316 27.1848H4.29323C4.24398 27.1875 4.19508 27.1751 4.15307 27.1493C4.11919 27.1254 4.09405 27.0912 4.08145 27.0517C4.0666 27.0043 4.05866 26.955 4.05786 26.9053C4.05786 26.8503 4.05475 26.7904 4.05475 26.7278C4.05456 26.6895 4.05965 26.6513 4.06988 26.6143C4.08088 26.5771 4.10271 26.5441 4.13261 26.5193L9.91666 19.0496H4.49745C4.46665 19.054 4.43524 19.0511 4.40572 19.0413C4.3762 19.0315 4.3494 19.0149 4.32742 18.993C4.30543 18.971 4.28889 18.9442 4.27909 18.9148C4.26929 18.8853 4.26652 18.854 4.27098 18.8233V18.574C4.27098 18.4314 4.34648 18.3601 4.49745 18.3601H10.6495C10.7088 18.3585 10.7664 18.38 10.8101 18.42C10.8321 18.4403 10.8495 18.4651 10.8609 18.4928C10.8722 18.5205 10.8774 18.5503 10.8759 18.5802V18.8588C10.8778 18.8892 10.8735 18.9196 10.8632 18.9483C10.853 18.9769 10.837 19.0033 10.8163 19.0256L5.04337 26.5074H10.6294Z" fill="#262626"/>
<path d="M26.7338 26.5074C26.7636 26.503 26.794 26.5056 26.8226 26.515C26.8512 26.5244 26.8773 26.5404 26.8986 26.5616C26.92 26.5827 26.9361 26.6086 26.9457 26.6371C26.9554 26.6656 26.9582 26.6959 26.954 26.7256V26.9608C26.9555 26.9903 26.951 27.0199 26.9408 27.0477C26.9307 27.0755 26.915 27.101 26.8948 27.1227C26.8739 27.1436 26.8487 27.16 26.8211 27.1707C26.7934 27.1813 26.7638 27.1862 26.7342 27.1848H20.3971C20.3481 27.1875 20.2995 27.1751 20.2579 27.1493C20.2237 27.1257 20.1984 27.0914 20.1862 27.0517C20.1711 27.0043 20.1628 26.955 20.1617 26.9053C20.1617 26.8503 20.1586 26.7904 20.1586 26.7278C20.1584 26.6895 20.1635 26.6513 20.1738 26.6143C20.1847 26.5772 20.2064 26.5442 20.236 26.5193L26.0201 19.0496H20.6C20.5692 19.0539 20.5379 19.051 20.5084 19.0411C20.4789 19.0312 20.4521 19.0147 20.4302 18.9927C20.4082 18.9708 20.3917 18.9441 20.3818 18.9147C20.372 18.8853 20.3692 18.854 20.3735 18.8233V18.574C20.3735 18.4314 20.449 18.3601 20.6 18.3601H26.7516C26.811 18.3585 26.8688 18.38 26.9126 18.42C26.9345 18.4404 26.9516 18.4653 26.9628 18.493C26.9741 18.5206 26.9791 18.5504 26.9776 18.5802V18.8588C26.9796 18.8891 26.9754 18.9196 26.9652 18.9483C26.955 18.977 26.9391 19.0033 26.9184 19.0256L21.1482 26.5065L26.7338 26.5074Z" fill="#262626"/>
<path d="M37.4129 25.0113C37.258 25.3914 37.1097 25.7536 36.9679 26.0978C36.8262 26.4421 36.6981 26.757 36.5839 27.0424C36.5694 27.0858 36.5414 27.1236 36.504 27.1502C36.4666 27.1768 36.4217 27.191 36.3757 27.1906C36.3576 27.1911 36.3395 27.1892 36.3219 27.1848H36.0064C35.8792 27.1728 35.816 27.1213 35.816 27.03V27.0038C35.8158 26.9944 35.8179 26.9851 35.8222 26.9767C35.8498 26.8853 35.8787 26.7992 35.9085 26.7243C35.9384 26.6493 35.9673 26.577 35.9949 26.5135L39.3416 18.5211C39.3606 18.4788 39.3846 18.4389 39.4132 18.4022C39.4302 18.3831 39.4515 18.3683 39.4753 18.359C39.4991 18.3496 39.5248 18.3461 39.5503 18.3486H39.7945C39.8209 18.3458 39.8475 18.3492 39.8723 18.3586C39.8971 18.3679 39.9194 18.3828 39.9374 18.4022C39.9652 18.4377 39.991 18.4734 40.0148 18.5092L43.5101 26.9053C43.5163 26.9235 43.5203 26.9425 43.5221 26.9616C43.5253 26.9824 43.5272 27.0032 43.5279 27.0242C43.5279 27.1191 43.4647 27.1746 43.3375 27.1901H43.022C43.0141 27.1901 43.0061 27.1911 42.9984 27.1932C42.9906 27.1951 42.9825 27.1961 42.9744 27.1959C42.9253 27.1957 42.8777 27.1793 42.8389 27.1493C42.8001 27.1193 42.7724 27.0773 42.76 27.03L41.9266 25.0113L41.6227 24.2696L39.6815 19.5251L37.7239 24.2696L37.4129 25.0113Z" fill="#262626"/>
<path d="M44.4308 30.5455H18.8102C17.864 30.5445 16.9568 30.1693 16.2877 29.5022C15.6186 28.835 15.2423 27.9304 15.2414 26.9869V18.5575C15.2406 17.7592 14.9222 16.9938 14.356 16.4293C13.7899 15.8648 13.0223 15.5473 12.2217 15.5465H3.59011C2.7897 15.548 2.02251 15.8657 1.45653 16.4301C0.890558 16.9944 0.57193 17.7594 0.570401 18.5575V26.9869C0.57193 27.785 0.890558 28.55 1.45653 29.1144C2.02251 29.6787 2.7897 29.9965 3.59011 29.998H7.46098V30.5455H3.59011C2.64394 30.5444 1.73684 30.1691 1.06779 29.502C0.398752 28.8349 0.0224182 27.9304 0.0213583 26.9869V18.5575C0.0224182 17.6141 0.398752 16.7096 1.06779 16.0424C1.73684 15.3753 2.64394 15.0001 3.59011 14.999H12.2217C13.1679 14.9999 14.0751 15.3751 14.7441 16.0423C15.4132 16.7095 15.7895 17.614 15.7904 18.5575V26.9869C15.792 27.785 16.1106 28.55 16.6766 29.1144C17.2426 29.6787 18.0098 29.9965 18.8102 29.998H44.4308C45.2312 29.9965 45.9984 29.6787 46.5644 29.1144C47.1304 28.55 47.449 27.785 47.4505 26.9869V18.5575C47.449 17.7594 47.1304 16.9944 46.5644 16.4301C45.9984 15.8657 45.2312 15.548 44.4308 15.5465H34.9147C33.9685 15.5455 33.0613 15.1703 32.3923 14.5032C31.7232 13.836 31.3469 12.9314 31.346 11.9879V3.55853C31.3444 2.76042 31.0258 1.99543 30.4598 1.43108C29.8938 0.866724 29.1267 0.548995 28.3262 0.547471H3.56875C2.76834 0.548995 2.00116 0.866724 1.43519 1.43108C0.869214 1.99543 0.550572 2.76042 0.549043 3.55853V7.77323H0V3.55853C0.000942317 2.61504 0.377232 1.71047 1.0463 1.04332C1.71537 0.376165 2.62255 0.000939618 3.56875 0H28.3267C29.2729 0.000939618 30.1801 0.376165 30.8491 1.04332C31.5182 1.71047 31.8945 2.61504 31.8954 3.55853V11.9879C31.8963 12.7863 32.2147 13.5517 32.7808 14.1162C33.3469 14.6807 34.1145 14.9982 34.9152 14.999H44.4312C45.3774 14.9999 46.2846 15.3751 46.9537 16.0423C47.6228 16.7095 47.9991 17.614 48 18.5575V26.9869C47.9991 27.9305 47.6227 28.8351 46.9535 29.5023C46.2844 30.1695 45.3771 30.5446 44.4308 30.5455Z" fill="#262626"/>
</svg>
