<svg width="602" height="230" viewBox="0 0 602 230" fill="none" xmlns="http://www.w3.org/2000/svg">
<path d="M349.04 73.26C348.64 73.15 348.25 73.05 347.85 72.94C347.85 64.66 347.78 56.37 347.89 48.09C347.93 45.33 346.98 44.23 344.16 44.27C336.55 44.39 328.95 44.4 321.34 44.29C318.46 44.25 317.55 45.51 317.64 48.18C317.75 51.33 317.65 54.49 317.65 57.64C317.65 92.92 317.7 128.2 317.59 163.48C317.58 167.25 318.46 168.88 322.63 168.67C329.5 168.32 336.41 168.39 343.29 168.65C346.88 168.78 347.97 167.61 347.92 164.04C347.74 150.27 347.45 136.49 348 122.74C348.34 114.37 349.19 105.79 351.49 97.78C355.44 84.01 363.71 73.54 378.54 69.87C392.14 66.51 404.58 74.65 407 88.24C407.22 89.48 409.24 91.27 410.48 91.32C418.65 91.67 426.83 91.59 435.01 91.71C437.48 91.75 438.33 90.57 438.14 88.25C437.84 84.54 437.75 80.82 437.32 77.13C434.42 52.52 417.92 39.4 393.35 42.26C374.77 44.42 361.34 54.56 351.33 69.83C350.58 70.98 349.79 72.11 349.02 73.25L349.04 73.26Z" fill="#5C5967"/>
<path d="M481.82 0.48999C481.82 7.49999 481.82 14.08 481.82 20.65C481.82 26.23 481.83 26.26 487.62 26.27C506.72 26.29 525.81 26.27 544.91 26.27C556.83 26.27 568.74 26.34 580.66 26.18C582 26.16 584.47 24.92 584.49 24.18C584.77 16.36 584.66 8.51999 584.66 0.48999H481.81H481.82Z" fill="#5C5967"/>
<path d="M31.43 159.03C31.43 161.63 31.43 163.15 31.43 164.68C31.43 179.89 31.27 195.1 31.53 210.31C31.61 214.63 30.13 215.73 26.11 215.57C19.51 215.31 12.89 215.29 6.29999 215.57C2.17999 215.75 0.90998 214.43 0.91998 210.24C1.04998 159.45 1.00998 108.65 1.00998 57.85C1.00998 54.55 1.11998 51.25 0.979978 47.95C0.879978 45.41 1.77998 44.27 4.41998 44.31C28.39 44.6 52.42 43.95 76.32 45.35C94.87 46.44 112.37 52.27 126.32 65.66C140.07 78.85 145.05 95.43 143.07 113.83C139.69 145.31 115.52 167.83 84 170.54C65.63 172.12 48.25 169.98 31.41 159.04L31.43 159.03ZM31.42 73.8C31.42 92.84 35.54 110.79 46.17 126.8C56.57 142.46 70.53 152.45 90.1 152.92C104.77 153.27 113.52 146.43 115.29 132.28C116.25 124.59 114.04 117.18 110.7 110.26C96.6 81.07 72.86 65.98 40.95 62.94C31.41 62.03 31.41 61.99 31.41 71.64C31.41 72.36 31.41 73.07 31.41 73.79L31.42 73.8Z" fill="#5C5967"/>
<path d="M444.55 91.99C449.67 73.43 459.05 59.0701 475.9 50.6001C493.3 41.8501 511.93 39.84 531.16 41.3C544.21 42.29 556.67 45.1301 568.1 51.6301C590.38 64.3001 600.64 83.9901 600.95 109.15C601.18 127.66 600.92 146.17 601.07 164.68C601.1 168.22 600.09 169.44 596.45 169.34C587.84 169.1 579.22 169.11 570.61 169.34C566.95 169.44 565.93 168.12 566.02 164.62C566.23 156.73 566.17 148.84 566.02 140.95C565.99 139.3 565.1 137.67 564.61 136.03C563.45 137.14 562.02 138.08 561.18 139.4C551.67 154.32 539.46 165.91 521.67 169.8C503.03 173.87 484.39 173.86 466.15 167.26C456.08 163.61 450.06 156.35 448.33 145.92C446.47 134.69 449.24 124.97 458.61 117.55C467.73 110.34 478.5 107.46 489.51 105.4C506.39 102.24 523.41 99.8101 540.26 96.5101C546.21 95.3501 552.1 93.07 557.56 90.36C563.37 87.48 564.89 82.44 563.19 76.12C559.18 61.21 548.28 51.6101 532.69 50.8501C524.95 50.4701 516.79 51.11 509.37 53.22C492.35 58.08 485.07 72.2801 479.8 87.5701C478.61 91.0201 477.47 92.48 473.74 92.36C465.71 92.11 457.66 92.32 449.62 92.31C448.22 92.31 446.82 92.14 444.52 91.99H444.55ZM565.79 95.4601C560.51 97.6901 556.08 100.16 551.32 101.44C539.59 104.59 527.7 107.14 515.9 110.04C507.53 112.1 499.49 114.76 492.49 120.25C481.23 129.1 479.57 152.31 498.53 159.7C506.63 162.86 514.87 163.07 522.9 160.23C542.87 153.19 555.77 138.89 562.95 119.33C565.71 111.8 566.58 103.87 565.79 95.44V95.4601Z" fill="#5C5967"/>
<path d="M301.65 106.41C301.65 137.81 282.69 161.46 251.35 168.46C231.35 172.93 211.4 172.47 192.09 164.99C161.28 153.06 147.9 123.99 153.92 92.9001C158.47 69.3801 173.19 54.2 195.6 46.77C217.07 39.65 238.82 39.87 260.26 47.21C286.27 56.11 301.65 78.36 301.66 106.41H301.65ZM243.87 152.83C265.16 152.97 275.63 141.84 273.32 125.53C272.28 118.16 270.21 110.48 266.68 103.98C254.37 81.26 236.29 65.36 210.11 60.44C197.21 58.02 185.85 64.28 182.06 75.57C179.9 82.02 180.28 88.57 182 95.04C187 113.74 198.46 127.91 213.64 139.32C224.01 147.12 235.39 152.61 243.87 152.83Z" fill="#5C5967"/>
<path d="M349.04 73.26C349.81 72.12 350.59 70.99 351.35 69.84C361.36 54.57 374.79 44.43 393.37 42.27C417.93 39.41 434.43 52.53 437.34 77.14C437.78 80.83 437.86 84.56 438.16 88.26C438.35 90.58 437.5 91.75 435.03 91.72C426.85 91.6 418.66 91.68 410.5 91.33C409.25 91.28 407.24 89.49 407.02 88.25C404.6 74.67 392.16 66.52 378.56 69.88C363.73 73.54 355.46 84.01 351.51 97.79C349.21 105.8 348.36 114.38 348.02 122.75C347.47 136.5 347.76 150.28 347.94 164.05C347.99 167.62 346.9 168.79 343.31 168.66C336.43 168.41 329.52 168.33 322.65 168.68C318.48 168.89 317.6 167.26 317.61 163.49C317.71 128.21 317.67 92.93 317.67 57.65C317.67 54.49 317.77 51.34 317.66 48.19C317.57 45.52 318.49 44.26 321.36 44.3C328.97 44.41 336.57 44.4 344.18 44.28C347 44.24 347.95 45.34 347.91 48.1C347.79 56.38 347.87 64.67 347.87 72.95C348.27 73.06 348.66 73.16 349.06 73.27L349.04 73.26Z" fill="#5C5967"/>
<path d="M481.82 0.48999H584.67C584.67 8.51999 584.78 16.36 584.5 24.18C584.47 24.92 582.01 26.16 580.67 26.18C568.76 26.34 556.84 26.27 544.92 26.27C525.82 26.27 506.73 26.28 487.63 26.27C481.84 26.27 481.83 26.23 481.83 20.65C481.83 14.08 481.83 7.49999 481.83 0.48999H481.82Z" fill="#5C5967"/>
<path d="M214.08 194.97H220.76L226.28 215.64L231.88 194.97H238.17L229.05 225.36H223.24L214.08 194.97Z" fill="#5C5967"/>
<path d="M245.12 225.36V194.97H261.61V200.4H251.29V207.17H259.88V212.25H251.29V219.93H261.83V225.36H245.12Z" fill="#5C5967"/>
<path d="M283.37 225.32L279.29 214.25C279.16 214.29 278.81 214.29 278.25 214.29H275.99V225.32H269.87V194.93H279.46C282.45 194.93 284.89 195.85 286.75 197.67C288.61 199.49 289.57 201.79 289.57 204.62C289.57 206.35 289.14 207.92 288.31 209.35C287.49 210.78 286.36 211.86 284.92 212.65L290.26 225.37L283.36 225.33L283.37 225.32ZM275.99 209.6H278.77C280.16 209.6 281.29 209.17 282.16 208.26C283.03 207.34 283.46 206.22 283.46 204.87C283.46 203.52 283.03 202.4 282.2 201.53C281.37 200.66 280.25 200.23 278.82 200.23H276V209.6H275.99Z" fill="#5C5967"/>
<path d="M308.68 200.53V225.36H302.52V200.53H296.14V194.97H315.02V200.53H308.68Z" fill="#5C5967"/>
<path d="M329.18 194.98H322.84V225.36H329.18V194.98Z" fill="#5C5967"/>
<path d="M352.36 214.16H358.31V215.72C358.31 218.75 357.4 221.19 355.58 223.01C353.76 224.84 351.37 225.75 348.46 225.75C345.55 225.75 343.08 224.84 341.26 223.06C339.44 221.28 338.53 218.85 338.53 215.81V204.52C338.53 201.48 339.48 199.05 341.35 197.23C343.21 195.4 345.65 194.49 348.6 194.49C351.55 194.49 353.85 195.4 355.63 197.18C357.41 198.96 358.32 201.39 358.32 204.43V205.69H352.37V204.39C352.37 203 352.02 201.92 351.33 201.13C350.64 200.35 349.68 199.96 348.51 199.96C347.34 199.96 346.38 200.35 345.69 201.13C345 201.91 344.65 203 344.65 204.39V215.89C344.65 217.28 345 218.36 345.69 219.14C346.38 219.92 347.29 220.31 348.47 220.31C349.65 220.31 350.64 219.92 351.34 219.14C352.03 218.36 352.38 217.28 352.38 215.89V214.15L352.36 214.16Z" fill="#5C5967"/>
<path d="M388.39 225.36H381.96L380.18 218.89H371.8L370.02 225.36H363.94L373.27 194.98H379.09L388.38 225.36H388.39ZM372.94 214.29H379.02L375.98 203.35L372.94 214.29Z" fill="#5C5967"/>
<path d="M395.35 194.97H401.51V219.76H411.19V225.36H395.35V194.97Z" fill="#5C5967"/>
<path d="M444.4 211.61H436.71V224.59H430.55V194.21H436.71V206.02H444.4V194.21H450.52V224.59H444.4V211.61Z" fill="#5C5967"/>
<path d="M459.73 203.93C459.73 200.85 460.68 198.37 462.59 196.51C464.5 194.64 466.98 193.73 469.97 193.73C472.96 193.73 475.44 194.64 477.31 196.46C479.18 198.29 480.09 200.76 480.09 203.88V214.74C480.09 217.82 479.14 220.3 477.22 222.16C475.31 224.02 472.84 224.98 469.84 224.98C466.84 224.98 464.33 224.07 462.46 222.24C460.59 220.42 459.64 217.94 459.64 214.82L459.73 203.92V203.93ZM465.81 214.87C465.81 216.35 466.16 217.47 466.9 218.3C467.64 219.12 468.64 219.51 469.89 219.51C471.14 219.51 472.15 219.12 472.89 218.3C473.63 217.47 473.97 216.34 473.97 214.87V203.8C473.97 202.37 473.63 201.24 472.89 200.42C472.15 199.6 471.15 199.21 469.89 199.21C468.63 199.21 467.63 199.64 466.9 200.47C466.16 201.29 465.81 202.42 465.81 203.86V214.88V214.87Z" fill="#5C5967"/>
<path d="M494.89 206.15V224.59H489.16V194.21H495.33L501.92 211.22L508.57 194.21H514.34V224.59H508.65V206.15L503.23 220.04H500.32L494.89 206.15Z" fill="#5C5967"/>
<path d="M523.9 224.59V194.21H540.39V199.63H530.06V206.41H538.66V211.49H530.06V219.17H540.61V224.59H523.9Z" fill="#5C5967"/>
<path d="M554.68 211.01C550.3 208.32 548.08 205.24 548.08 201.72C548.08 199.33 548.95 197.38 550.69 195.86C552.43 194.34 554.55 193.61 557.07 193.61C558.5 193.61 559.8 193.83 560.98 194.26C562.15 194.7 563.06 195.26 563.71 195.91C564.36 196.56 564.88 197.21 565.32 197.86C565.75 198.51 566.06 199.08 566.19 199.51L566.41 200.2L561.42 202.2C561.38 202.11 561.33 201.98 561.29 201.81C561.25 201.64 561.12 201.38 560.9 200.99C560.68 200.6 560.43 200.25 560.12 199.95C559.82 199.64 559.43 199.38 558.95 199.12C558.47 198.86 557.95 198.73 557.39 198.73C556.57 198.73 555.87 198.99 555.31 199.47C554.75 199.95 554.44 200.6 554.44 201.38C554.44 202.38 554.79 203.25 555.53 203.98C556.27 204.72 557.44 205.58 559.09 206.58C561.3 207.93 563.04 209.36 564.3 210.88C565.56 212.4 566.17 214.18 566.17 216.22C566.17 218.86 565.3 220.99 563.52 222.55C561.74 224.11 559.48 224.9 556.75 224.9C555.27 224.9 553.93 224.64 552.71 224.12C551.49 223.6 550.54 222.99 549.84 222.25C549.15 221.51 548.54 220.78 548.06 220.04C547.58 219.3 547.24 218.69 547.06 218.17L546.8 217.39L551.79 215.39C551.83 215.52 551.88 215.69 551.97 215.91C552.06 216.13 552.23 216.48 552.53 217C552.84 217.53 553.14 217.96 553.49 218.35C553.84 218.74 554.27 219.09 554.83 219.4C555.39 219.7 555.96 219.87 556.57 219.87C557.57 219.87 558.35 219.57 558.96 219.01C559.57 218.44 559.87 217.7 559.87 216.79C559.87 215.7 559.48 214.79 558.7 214.01C557.92 213.23 556.62 212.28 554.75 211.14L554.71 211.01H554.68Z" fill="#5C5967"/>
<path d="M199.9 194.5H188.86V229.51H199.9V194.5Z" fill="#5C5967"/>
<path d="M594.57 203.69C594.57 209.8 589.66 214.64 583.42 214.64C577.18 214.64 572.2 209.79 572.2 203.69C572.2 197.59 577.18 192.8 583.49 192.8C589.8 192.8 594.58 197.58 594.58 203.69H594.57ZM574.98 203.69C574.98 208.54 578.63 212.39 583.48 212.39C588.19 212.46 591.78 208.54 591.78 203.76C591.78 198.98 588.19 195 583.35 195C578.51 195 574.98 198.92 574.98 203.7V203.69ZM581.69 209.33H579.17V198.44C580.17 198.31 581.56 198.11 583.35 198.11C585.41 198.11 586.34 198.44 587.07 198.97C587.73 199.43 588.2 200.23 588.2 201.29C588.2 202.62 587.2 203.48 585.94 203.88V204.01C587 204.34 587.53 205.21 587.86 206.67C588.19 208.33 588.46 208.93 588.66 209.33H586C585.67 208.93 585.47 208 585.14 206.67C584.94 205.54 584.28 205.01 582.88 205.01H581.69V209.33ZM581.76 203.22H582.96C584.35 203.22 585.48 202.76 585.48 201.63C585.48 200.63 584.75 199.97 583.16 199.97C582.5 199.97 582.03 200.04 581.77 200.1V203.22H581.76Z" fill="#5C5967"/>
</svg>
