<svg width="180" height="90" viewBox="0 0 200 90" fill="none" xmlns="http://www.w3.org/2000/svg">
<g clip-path="url(#clip0_1842_7751)">
<path d="M10.203 62.3548C10.203 62.7115 10.203 62.9736 10.203 63.2371C10.2052 69.6322 10.2098 76.0259 10.2064 82.421C10.2064 82.798 10.1686 83.1844 10.0964 83.5519C9.98865 84.0951 9.65172 84.3775 9.19331 84.441C8.9664 84.4734 8.73605 84.4694 8.50684 84.4694C6.25377 84.4721 3.99955 84.4707 1.74647 84.4707C1.66969 84.4707 1.59405 84.4666 1.51727 84.4707C0.415942 84.5234 0.0732825 83.8167 0.0102514 82.7547C-0.0046469 82.5075 0.00108319 82.2602 0.00108319 82.0116C0.0102514 62.2426 0.0194195 42.4723 0.0285877 22.7034C0.0285877 21.4441 0.0262956 20.1848 0.0251496 18.9269C0.0251496 18.8147 0.0217116 18.7012 0.0251496 18.5891C0.0538001 17.6176 0.343743 17.2433 1.17805 17.2055C1.88285 17.1744 2.59109 17.2028 3.29704 17.2149C3.67866 17.2217 4.06029 17.2622 4.44076 17.2649C9.15778 17.2852 13.8748 17.2771 18.5918 17.3284C20.6145 17.35 22.6373 17.4554 24.6577 17.5865C27.4677 17.7689 30.2377 18.2526 32.9159 19.3187C35.9368 20.5199 38.6632 22.3223 41.0664 24.8071C43.3596 27.1798 45.1428 29.9754 46.2602 33.333C46.9627 35.4422 47.3329 37.6365 47.475 39.8997C47.6377 42.4845 47.4326 45.026 46.9581 47.5392C46.345 50.7834 45.2253 53.7735 43.5796 56.4826C41.5821 59.7686 39.0288 62.294 35.9735 64.0991C33.984 65.2747 31.8753 66.0408 29.6773 66.5002C28.0522 66.8393 26.4134 66.9514 24.7769 66.9798C21.0397 67.046 17.3862 66.4326 13.9378 64.6355C12.8239 64.0545 11.765 63.3249 10.6808 62.6615C10.5502 62.5818 10.4218 62.4939 10.203 62.3534V62.3548ZM10.2041 28.6472C10.1697 30.7428 10.2946 32.825 10.5238 34.9031C10.7805 37.2311 11.2023 39.5133 11.836 41.7346C12.9981 45.8111 14.7343 49.5133 17.1318 52.7669C18.4933 54.6153 20.0496 56.1988 21.8683 57.4C23.8589 58.7147 25.9905 59.4957 28.2677 59.7538C29.7013 59.9159 31.1247 59.9402 32.5377 59.5808C34.7221 59.0255 36.3723 57.6392 37.3281 55.2098C38.1131 53.2168 38.3137 51.1036 38.136 48.9458C38.0008 47.3014 37.5756 45.734 37.0233 44.2167C36.3368 42.3291 35.4842 40.5483 34.5398 38.8242C33.1004 36.1961 31.3803 33.8559 29.3438 31.8548C26.379 28.9417 22.9937 26.9825 19.2806 25.7827C16.8235 24.9896 14.3172 24.5437 11.7787 24.3842C10.6786 24.3153 10.2522 24.6139 10.2087 26.0799C10.1835 26.9339 10.2041 27.7905 10.2041 28.6458V28.6472Z" fill="#262724"/>
<path d="M197.809 30.8039C197.821 30.8525 197.831 30.8998 197.842 30.9485C197.87 30.9917 197.896 31.0349 197.924 31.0782C197.934 31.1241 197.944 31.1714 197.954 31.2173C197.981 31.2646 198.007 31.3119 198.035 31.3592C198.039 31.4038 198.049 31.4457 198.062 31.4876C198.091 31.5389 198.119 31.5889 198.147 31.6403C198.148 31.6794 198.155 31.7186 198.166 31.7565C198.201 31.8429 198.235 31.9294 198.271 32.0172C198.28 32.0672 198.289 32.1159 198.297 32.1659C198.324 32.2172 198.35 32.2672 198.375 32.3185C198.39 32.4037 198.406 32.4888 198.421 32.5739C198.446 32.6144 198.472 32.655 198.498 32.6955C198.506 32.7442 198.515 32.7914 198.523 32.8401C198.549 32.8941 198.576 32.9482 198.602 33.0022C198.617 33.0847 198.631 33.1657 198.646 33.2481C198.671 33.2968 198.696 33.3454 198.721 33.3941C198.733 33.4805 198.745 33.5657 198.757 33.6521C198.782 33.7048 198.807 33.7562 198.834 33.8089C198.845 33.8913 198.857 33.9737 198.868 34.0575C198.893 34.1129 198.92 34.1683 198.945 34.2237C198.956 34.3034 198.968 34.3818 198.978 34.4615C199.009 34.5493 199.04 34.6358 199.071 34.7236C199.081 34.8168 199.09 34.9101 199.101 35.0047C199.126 35.0574 199.15 35.1114 199.175 35.1641C199.188 35.2911 199.2 35.4181 199.214 35.5438C199.239 35.5992 199.263 35.6532 199.289 35.7086C199.301 35.8343 199.315 35.9586 199.328 36.0842C199.355 36.1734 199.384 36.2626 199.411 36.3518C199.418 36.4423 199.426 36.5315 199.433 36.622C199.463 36.7585 199.493 36.8949 199.524 37.0314C199.534 37.1652 199.544 37.2989 199.555 37.4341C199.581 37.5286 199.607 37.6246 199.632 37.7192C199.64 37.8029 199.648 37.8867 199.655 37.9691C199.686 38.1988 199.718 38.4272 199.749 38.6569C199.757 38.7866 199.765 38.9163 199.773 39.046L199.861 39.7432C199.87 39.9607 199.879 40.1783 199.888 40.3972C199.918 40.8539 199.948 41.3106 199.977 41.7673C199.984 42.7968 199.991 43.8264 199.999 44.856C199.992 45.1263 199.98 45.3951 199.98 45.6654C199.98 51.8808 199.982 58.0948 199.983 64.3102C199.983 64.3547 199.982 64.4007 199.983 64.4453C200.038 65.8762 199.595 66.3747 198.333 66.3369C196.997 66.2964 195.661 66.2423 194.325 66.2437C192.874 66.2437 191.425 66.3099 189.974 66.3342C188.656 66.3558 188.288 65.9302 188.305 64.3899C188.319 63.0401 188.379 61.6902 188.376 60.3404C188.373 58.6298 188.33 56.9193 188.301 55.2087C188.29 54.6317 188.1 53.9426 187.796 53.3373C187.339 53.7089 186.956 54.1575 186.631 54.6858C185.8 56.0316 185.015 57.4246 184.111 58.6988C181.187 62.8171 177.556 65.5762 173.032 66.6369C169.851 67.3827 166.649 67.7502 163.414 67.5354C160.387 67.3341 157.433 66.6288 154.608 65.3019C152.706 64.4101 151.178 62.9644 150.175 60.8214C149.454 59.2798 149.095 57.6138 148.983 55.8627C148.9 54.5763 148.929 53.2995 149.166 52.0402C149.624 49.6081 150.766 47.6786 152.382 46.1288C154.2 44.3858 156.281 43.2333 158.511 42.4266C160.743 41.62 163.039 41.1592 165.331 40.6836C170.141 39.6865 174.955 38.719 179.762 37.7016C181.844 37.2611 183.8 36.3504 185.667 35.1938C187.187 34.2534 187.854 32.6104 187.532 30.6201C186.962 27.1017 185.563 24.1602 183.064 22.0361C181.641 20.8255 180.029 20.1256 178.297 19.8932C175.288 19.4878 172.31 19.7621 169.394 20.7336C166.558 21.6767 164.36 23.6724 162.689 26.5072C161.392 28.7096 160.529 31.1592 159.752 33.6575C159.621 34.0805 159.493 34.5047 159.344 34.9182C159.059 35.7113 158.534 36.0815 157.811 36.0775C156.951 36.0721 156.092 36.0599 155.232 36.0599C153.379 36.0613 151.527 36.0815 149.674 36.068C149.09 36.064 148.506 35.9789 147.863 35.9262C147.99 35.3979 148.084 34.9641 148.199 34.5385C149.025 31.47 150.154 28.5785 151.819 26.0059C152.27 25.31 152.763 24.6507 153.236 23.9751C153.388 23.8075 153.541 23.6413 153.694 23.4738C153.721 23.44 153.748 23.4062 153.774 23.3724L153.797 23.3468C153.829 23.3103 153.862 23.2738 153.892 23.2373L153.912 23.2157C153.945 23.1779 153.977 23.14 154.011 23.1022L154.028 23.0833L154.132 22.9685L154.143 22.9576C154.182 22.9171 154.221 22.8779 154.26 22.8374C154.38 22.7158 154.499 22.5928 154.617 22.4712C154.653 22.4442 154.69 22.4158 154.727 22.3888C154.754 22.3564 154.782 22.3239 154.809 22.2929L154.83 22.274L154.942 22.1618L154.948 22.1564C154.989 22.1145 155.029 22.074 155.071 22.0321L155.067 22.0361C155.114 21.9929 155.161 21.9497 155.208 21.9064C155.241 21.897 155.271 21.8808 155.3 21.8591C155.333 21.8254 155.367 21.7916 155.401 21.7565L155.406 21.751C155.448 21.7092 155.488 21.6686 155.529 21.6267L155.526 21.6308C155.567 21.5862 155.609 21.5416 155.65 21.497L155.647 21.5105C156.064 21.1876 156.481 20.866 156.898 20.5431C156.936 20.535 156.972 20.5201 157.006 20.4985L157.483 20.1459C157.521 20.1364 157.556 20.1215 157.591 20.1013C157.626 20.0688 157.663 20.0351 157.698 20.0026C157.735 19.9878 157.772 19.9729 157.807 19.9594C158.152 19.7473 158.498 19.5338 158.843 19.3216C158.883 19.3095 158.925 19.2973 158.965 19.2852C159 19.2541 159.035 19.223 159.07 19.1919C159.111 19.1798 159.152 19.1676 159.193 19.1568C159.233 19.1257 159.273 19.0933 159.314 19.0622C159.351 19.0582 159.387 19.0487 159.421 19.0338C159.467 19.0001 159.513 18.9663 159.557 18.9339C159.704 18.8717 159.85 18.8082 159.996 18.746C160.033 18.715 160.068 18.6839 160.105 18.6542C160.144 18.6447 160.184 18.6353 160.223 18.6258C160.269 18.5947 160.316 18.5623 160.362 18.5312C160.431 18.5136 160.5 18.4947 160.569 18.4772C160.605 18.4461 160.64 18.415 160.677 18.3853C160.717 18.3758 160.757 18.3664 160.796 18.3556C160.842 18.3245 160.888 18.2921 160.934 18.261C161.002 18.2448 161.072 18.2272 161.141 18.211C161.182 18.1813 161.222 18.1502 161.264 18.1205C161.338 18.1042 161.412 18.088 161.486 18.0718C161.523 18.0421 161.561 18.0124 161.597 17.9813C161.635 17.9745 161.673 17.9691 161.712 17.9624C161.786 17.9218 161.86 17.8827 161.934 17.8421C161.975 17.834 162.017 17.8246 162.058 17.8164L162.277 17.707C162.318 17.7002 162.359 17.6948 162.401 17.6881C162.477 17.6516 162.554 17.6138 162.63 17.5773C162.708 17.5624 162.784 17.5489 162.862 17.5341C162.903 17.5043 162.944 17.4746 162.984 17.4449C163.057 17.4314 163.132 17.4165 163.205 17.403C163.25 17.3733 163.294 17.3435 163.339 17.3138C163.448 17.2962 163.556 17.2787 163.665 17.2611C163.706 17.2327 163.747 17.203 163.788 17.1746C163.861 17.1625 163.934 17.1517 164.006 17.1395C164.083 17.1057 164.16 17.0706 164.238 17.0368C164.313 17.0247 164.39 17.0138 164.466 17.0017C164.545 16.9693 164.624 16.9368 164.702 16.9044C164.814 16.8895 164.926 16.8747 165.04 16.8598C165.086 16.8314 165.13 16.8017 165.176 16.7733C165.283 16.7598 165.389 16.7463 165.497 16.7328C165.576 16.7004 165.655 16.668 165.734 16.6355C165.847 16.6207 165.959 16.6044 166.071 16.5896C166.15 16.5599 166.229 16.5301 166.308 16.5004C166.459 16.4869 166.608 16.4734 166.758 16.4599C166.84 16.4301 166.923 16.4004 167.005 16.3707C167.152 16.3572 167.297 16.345 167.444 16.3315C167.562 16.2977 167.68 16.264 167.799 16.2302C167.95 16.2167 168.099 16.2031 168.249 16.1896C168.368 16.1586 168.487 16.1288 168.606 16.0978C168.869 16.0856 169.131 16.0734 169.394 16.0613C169.59 16.0288 169.785 15.9951 169.981 15.9626C170.244 15.9505 170.506 15.9383 170.769 15.9262C171.385 15.8937 172.002 15.8613 172.618 15.8275C172.912 15.8275 173.205 15.8275 173.5 15.8262C174.115 15.86 174.732 15.8951 175.347 15.9289C175.685 15.9397 176.023 15.9518 176.363 15.9626C176.597 15.9964 176.832 16.0316 177.067 16.0653C177.291 16.0761 177.513 16.0883 177.737 16.0991C177.896 16.1329 178.054 16.1667 178.213 16.2018C178.397 16.214 178.58 16.2261 178.763 16.2369C178.885 16.268 179.006 16.2977 179.129 16.3288L179.569 16.3693C179.652 16.3991 179.734 16.4301 179.817 16.4599L180.261 16.5018C180.38 16.5355 180.5 16.5693 180.62 16.6031C180.728 16.6153 180.834 16.6288 180.942 16.6409L181.193 16.7382C181.269 16.7463 181.343 16.7558 181.419 16.7639C181.496 16.7963 181.572 16.8287 181.649 16.8598C181.761 16.8733 181.874 16.8882 181.986 16.9017C182.065 16.9341 182.144 16.9666 182.223 16.9976C182.301 17.0084 182.379 17.0193 182.457 17.0287C182.532 17.0638 182.607 17.0976 182.682 17.1328C182.756 17.1449 182.831 17.1571 182.905 17.1692C182.984 17.203 183.062 17.2381 183.141 17.2719C183.212 17.2827 183.283 17.2949 183.353 17.3057C183.396 17.3341 183.439 17.3625 183.482 17.3908C183.588 17.4084 183.696 17.426 183.802 17.4435C183.849 17.4732 183.895 17.5043 183.942 17.5341C184.011 17.5489 184.081 17.5624 184.15 17.5773C184.196 17.6084 184.24 17.6381 184.286 17.6692C184.356 17.684 184.425 17.6975 184.495 17.7124C184.539 17.7435 184.585 17.7732 184.63 17.8043C184.7 17.8191 184.77 17.8327 184.84 17.8475C184.884 17.8786 184.929 17.9083 184.974 17.9394C185.044 17.9543 185.115 17.9678 185.185 17.9826C185.229 18.0137 185.273 18.0434 185.318 18.0745C185.384 18.0907 185.45 18.1069 185.516 18.1232C185.565 18.1569 185.613 18.1894 185.662 18.2231C185.697 18.2367 185.734 18.2461 185.77 18.2488C185.81 18.2799 185.85 18.311 185.891 18.342C185.957 18.3596 186.022 18.3772 186.089 18.3947C186.138 18.4285 186.187 18.461 186.237 18.4947C186.271 18.5082 186.307 18.5163 186.343 18.5191C186.383 18.5501 186.423 18.5812 186.464 18.6136C186.529 18.6312 186.595 18.6488 186.661 18.6663C186.71 18.7001 186.759 18.7339 186.81 18.7677C186.842 18.7825 186.874 18.7906 186.908 18.7933C186.952 18.8271 186.995 18.8609 187.038 18.8933C187.071 18.9095 187.106 18.9203 187.142 18.9258C187.183 18.9582 187.224 18.9906 187.266 19.023C187.304 19.0338 187.34 19.046 187.378 19.0568C187.417 19.0892 187.456 19.1217 187.495 19.1555C187.533 19.1676 187.572 19.1798 187.61 19.1919C187.647 19.2244 187.685 19.2554 187.723 19.2879C187.762 19.3 187.801 19.3135 187.84 19.3257C187.877 19.3568 187.914 19.3892 187.951 19.4203C187.991 19.4338 188.031 19.4473 188.071 19.4608C188.108 19.4919 188.144 19.523 188.18 19.5527C188.22 19.5676 188.26 19.5811 188.301 19.5959C188.337 19.627 188.373 19.6581 188.409 19.6878C188.448 19.7027 188.486 19.7175 188.525 19.7324C188.563 19.7662 188.602 19.7986 188.64 19.8324C188.674 19.8513 188.709 19.8635 188.746 19.8716C188.788 19.9081 188.829 19.9432 188.87 19.9797C188.898 19.9972 188.927 20.008 188.958 20.0134C189.005 20.0513 189.054 20.0891 189.101 20.1283C189.176 20.1769 189.253 20.2256 189.329 20.2729C189.366 20.3053 189.404 20.3377 189.441 20.3702C189.474 20.3904 189.51 20.4039 189.546 20.412L189.671 20.5242C189.747 20.5755 189.821 20.6282 189.897 20.6796C189.936 20.7147 189.975 20.7512 190.014 20.7863C190.091 20.8404 190.166 20.8944 190.243 20.9485C190.281 20.9836 190.319 21.0174 190.358 21.0525C190.434 21.1079 190.512 21.1633 190.589 21.2187C190.626 21.2525 190.664 21.2849 190.7 21.3187C190.779 21.3754 190.857 21.4322 190.936 21.4889C190.972 21.5213 191.009 21.5551 191.044 21.5876C191.119 21.6457 191.194 21.7038 191.269 21.7632C191.311 21.8037 191.354 21.8429 191.396 21.8835L191.404 21.8902C191.436 21.924 191.469 21.9564 191.501 21.9902C191.577 22.0497 191.652 22.1091 191.727 22.1686C191.77 22.2077 191.812 22.2483 191.854 22.2875L191.864 22.2956C191.896 22.328 191.928 22.3604 191.96 22.3942C192.035 22.4537 192.111 22.5145 192.187 22.5739C192.228 22.6158 192.27 22.6577 192.312 22.6982L192.316 22.7036C192.354 22.7428 192.392 22.782 192.429 22.8225L192.442 22.836C192.472 22.8698 192.503 22.9036 192.533 22.9374C192.644 23.0428 192.756 23.1468 192.867 23.2522C192.91 23.2968 192.952 23.3414 192.995 23.386L192.992 23.3833C193.033 23.4251 193.073 23.467 193.113 23.5089L193.117 23.5143C193.152 23.5522 193.187 23.59 193.222 23.6278C193.654 24.1345 194.086 24.6398 194.518 25.1465C194.546 25.1817 194.576 25.2154 194.605 25.2506L194.619 25.2695C194.652 25.3127 194.685 25.356 194.718 25.3992L194.724 25.4073C194.76 25.4532 194.795 25.4992 194.831 25.5438C194.867 25.5911 194.905 25.6384 194.942 25.6857L194.938 25.6816C194.976 25.7316 195.015 25.7816 195.053 25.8329C195.143 25.964 195.234 26.0964 195.325 26.2275C195.352 26.2626 195.38 26.2991 195.407 26.3342L195.416 26.3491C195.449 26.3977 195.483 26.4464 195.515 26.4964C195.598 26.6301 195.682 26.7652 195.766 26.899C195.797 26.9436 195.829 26.9868 195.86 27.0314C195.896 27.0828 195.933 27.1328 195.97 27.1841C196.018 27.2706 196.066 27.3557 196.115 27.4422C196.145 27.4854 196.175 27.5286 196.205 27.5732C196.252 27.6651 196.298 27.7556 196.345 27.8475C196.374 27.8921 196.404 27.9353 196.433 27.9799L196.57 28.2529C196.6 28.2975 196.631 28.342 196.661 28.388C196.707 28.4785 196.751 28.5677 196.797 28.6582C196.828 28.7042 196.859 28.7488 196.89 28.7947C196.904 28.8406 196.918 28.8866 196.931 28.9325C196.956 28.973 196.982 29.0136 197.007 29.0528C197.049 29.146 197.091 29.2392 197.133 29.3325C197.164 29.3852 197.196 29.4392 197.227 29.4919C197.233 29.5311 197.243 29.5689 197.258 29.604C197.288 29.65 197.317 29.6946 197.347 29.7405C197.36 29.7851 197.371 29.831 197.384 29.8756C197.41 29.9175 197.438 29.9607 197.464 30.0026C197.478 30.0513 197.493 30.0999 197.507 30.1486C197.531 30.1877 197.556 30.2269 197.58 30.2648C197.593 30.3161 197.606 30.3661 197.62 30.4174C197.645 30.4566 197.669 30.4972 197.695 30.5363C197.706 30.5863 197.719 30.6363 197.73 30.6863C197.756 30.7282 197.782 30.7687 197.808 30.8106L197.809 30.8039ZM188.196 37.33C187.731 37.5692 187.293 37.7732 186.87 38.0164C185.252 38.946 183.574 39.6648 181.819 40.1499C178.328 41.1146 174.843 42.1051 171.36 43.109C169.279 43.7089 167.251 44.4912 165.391 45.7856C164.349 46.5112 163.372 47.33 162.64 48.4893C161.79 49.8351 161.319 51.3552 161.111 53.013C160.685 56.4193 161.895 60.3229 165.095 62.1361C167.344 63.4116 169.71 63.8467 172.168 63.286C174.718 62.7036 177 61.3565 179.13 59.6473C181.467 57.7732 183.353 55.3762 184.855 52.5631C186.131 50.1702 187.127 47.6232 187.767 44.8912C188.316 42.5415 188.377 40.1432 188.28 37.7286C188.275 37.6232 188.238 37.5192 188.196 37.3287V37.33Z" fill="#262724"/>
<path d="M100.19 41.5911C100.24 44.8447 99.7845 47.9551 98.8471 50.9655C98.0896 53.3949 97.0054 55.6068 95.6039 57.6025C93.439 60.6858 90.7367 62.8977 87.6207 64.4353C85.3516 65.5555 82.9759 66.1905 80.552 66.6202C78.6428 66.9593 76.7209 67.1634 74.7933 67.1215C70.2344 67.0215 65.8474 65.9622 61.7321 63.5828C58.8395 61.91 56.3985 59.5711 54.4686 56.5134C53.1106 54.3624 52.1193 51.9951 51.4534 49.4306C50.6673 46.4013 50.4002 43.299 50.5744 40.1562C50.7991 36.0905 51.6265 32.2073 53.3696 28.6429C54.9694 25.3717 57.1778 22.8126 59.9053 20.8574C62.2272 19.1928 64.745 18.097 67.3716 17.3309C69.6007 16.681 71.8572 16.2973 74.1572 16.1797C78.6302 15.9514 82.9438 16.8418 87.1233 18.6537C90.1603 19.9711 92.8225 22.0167 95.0102 24.8474C97.0753 27.5201 98.5102 30.6223 99.3491 34.1016C99.9427 36.5634 100.235 39.0739 100.19 41.5911ZM67.9389 23.3152C67.4278 23.3774 66.911 23.403 66.4056 23.5071C63.7067 24.0624 61.7481 25.7933 60.6262 28.7469C59.7437 31.0682 59.7059 33.5044 60.1277 35.9608C60.5861 38.6294 61.4227 41.1358 62.524 43.5233C64.3782 47.5444 66.9556 50.8304 69.9605 53.6787C71.6016 55.2339 73.339 56.6269 75.2196 57.7484C77.5449 59.1347 79.9366 60.1575 82.6332 59.7603C84.1047 59.5428 85.5418 59.2496 86.8781 58.4753C88.9191 57.2944 90.2474 55.423 90.723 52.7694C90.9418 51.5452 90.9373 50.3143 90.7791 49.078C90.4445 46.4621 89.9139 43.9124 88.9375 41.5155C88.1249 39.5211 87.1222 37.6592 86.022 35.8703C84.6468 33.6382 83.0801 31.6114 81.2763 29.8508C78.6989 27.3349 75.8064 25.5001 72.5986 24.3759C71.0802 23.8435 69.5525 23.3341 67.9401 23.3166L67.9389 23.3152Z" fill="#262724"/>
<path d="M126.678 17.4468C126.743 17.4333 126.808 17.4184 126.874 17.4049C126.92 17.3725 126.965 17.3401 127.011 17.3076C127.042 17.3063 127.072 17.2982 127.102 17.2847C127.189 17.2509 127.277 17.2171 127.364 17.1833C127.468 17.1617 127.574 17.1401 127.678 17.1185C127.716 17.0888 127.754 17.0577 127.792 17.028C127.867 17.0185 127.943 17.009 128.019 16.9996C128.067 16.9685 128.115 16.9374 128.164 16.905C128.229 16.8928 128.295 16.882 128.36 16.8699L128.704 16.7564C128.821 16.7415 128.937 16.728 129.053 16.7131C129.095 16.6848 129.136 16.655 129.177 16.6267C129.326 16.6145 129.475 16.6037 129.624 16.5915C129.701 16.5577 129.778 16.5226 129.854 16.4888L130.312 16.4578C130.393 16.4253 130.474 16.3929 130.555 16.3605L131.344 16.3186C131.5 16.2862 131.655 16.2551 131.811 16.2227C132.528 16.2227 133.247 16.2227 133.964 16.2227C134.197 16.2578 134.429 16.2943 134.662 16.3294C134.81 16.3389 134.958 16.3497 135.107 16.3591C135.187 16.3929 135.267 16.4267 135.347 16.4605C135.501 16.4686 135.656 16.4767 135.809 16.4848C135.923 16.5226 136.037 16.5618 136.152 16.5996C136.217 16.6118 136.283 16.6226 136.348 16.6348C136.396 16.6658 136.444 16.6983 136.493 16.7293C136.601 16.7415 136.708 16.7537 136.815 16.7658C136.86 16.7969 136.906 16.8266 136.951 16.8577C137.026 16.8699 137.102 16.882 137.179 16.8928C137.218 16.9239 137.255 16.955 137.294 16.9861C137.368 17.0009 137.44 17.0171 137.513 17.032C137.556 17.0644 137.597 17.0955 137.639 17.1279C137.708 17.1428 137.778 17.1577 137.847 17.1725C137.893 17.205 137.939 17.2387 137.984 17.2712C138.052 17.286 138.118 17.3022 138.186 17.3171C138.424 17.4495 138.662 17.5806 138.9 17.713L138.897 17.7076C138.937 17.7414 138.976 17.7765 139.016 17.8103C139.054 17.8197 139.09 17.8305 139.128 17.84C139.167 17.8738 139.205 17.9076 139.244 17.94C139.278 17.9549 139.315 17.9684 139.35 17.9765C139.392 18.0157 139.433 18.0535 139.474 18.0927C139.551 18.1427 139.628 18.1927 139.705 18.2427L139.816 18.3426C139.848 18.3616 139.88 18.3751 139.914 18.3845C139.959 18.4251 140.005 18.4656 140.049 18.5061L140.054 18.5088C140.088 18.5386 140.123 18.5683 140.156 18.598C140.193 18.6156 140.231 18.6331 140.267 18.6507C140.31 18.6912 140.351 18.7331 140.393 18.7737L140.4 18.7791C140.433 18.8115 140.467 18.8439 140.5 18.8777C140.574 18.9385 140.648 18.998 140.722 19.0588C140.765 19.1033 140.806 19.1479 140.848 19.1925L140.846 19.1898C140.886 19.229 140.927 19.2682 140.967 19.3074L140.98 19.3182C141.011 19.3506 141.042 19.383 141.073 19.4155C141.15 19.4803 141.226 19.5465 141.303 19.6114C141.645 20.0194 141.985 20.4288 142.327 20.8369C142.338 20.8788 142.355 20.9166 142.376 20.9531C142.403 20.9896 142.431 21.0247 142.458 21.0612L142.468 21.0761C142.501 21.1233 142.534 21.172 142.567 21.2193H142.566C142.601 21.2639 142.635 21.3098 142.67 21.3557C142.727 21.4463 142.782 21.5382 142.838 21.6287C142.864 21.6652 142.892 21.7003 142.918 21.7368L142.926 21.7516C142.959 21.8003 142.992 21.8503 143.026 21.8989C143.052 21.9489 143.08 21.9989 143.106 22.0489C143.322 22.4975 143.549 22.9393 143.755 23.396C144.55 25.1593 145.072 27.0388 145.306 29.0101C145.48 30.4761 145.546 31.9597 145.66 33.4365C145.687 33.7716 145.71 34.1081 145.737 34.4432C145.809 35.3539 145.483 35.8173 144.709 35.8173C142.399 35.8173 140.09 35.8024 137.779 35.7795C137.361 35.7754 136.94 35.7268 136.524 35.6646C135.941 35.5754 135.554 35.1701 135.353 34.5296C135.261 34.2364 135.217 33.9216 135.142 33.6203C134.329 30.3072 132.558 28.121 129.699 27.2482C128.36 26.8388 127.011 26.9266 125.682 27.3293C123.346 28.0359 121.346 29.4182 119.758 31.5719C118.915 32.7164 118.246 34 117.73 35.3903C116.857 37.736 116.381 40.1991 116.083 42.7285C115.615 46.6875 115.627 50.6653 115.622 54.6458C115.619 57.7751 115.635 60.9031 115.643 64.0324C115.643 64.2581 115.647 64.4824 115.64 64.708C115.614 65.5673 115.234 66.0213 114.498 66.0727C114.365 66.0821 114.231 66.0781 114.097 66.0781C111.768 66.0781 109.438 66.0781 107.109 66.0781C106.957 66.0781 106.803 66.0862 106.651 66.07C106.026 66.0038 105.636 65.5633 105.566 64.8255C105.536 64.5134 105.544 64.1959 105.544 63.8811C105.549 48.8223 105.554 33.7635 105.56 18.7048C105.56 17.5765 105.904 17.1752 106.878 17.1725C108.119 17.1698 109.36 17.182 110.601 17.1833C110.831 17.1833 111.059 17.1658 111.288 17.1563C112.24 17.1563 113.192 17.1563 114.145 17.1617C114.411 17.1631 114.677 17.1928 114.942 17.209L115.182 17.2995C115.222 17.3374 115.262 17.3766 115.302 17.4144L115.317 17.4279C115.35 17.4644 115.385 17.5022 115.418 17.5387L115.438 17.563C115.468 17.6076 115.498 17.6522 115.529 17.6968C115.541 17.7468 115.551 17.7954 115.562 17.8454C115.588 17.8941 115.613 17.9427 115.638 17.9913C115.646 18.0738 115.653 18.1575 115.661 18.24C115.654 18.4426 115.639 18.644 115.639 18.8466C115.638 21.7962 115.639 24.7445 115.639 27.6941C115.639 27.8062 115.62 27.9265 115.646 28.0305C115.687 28.1873 115.763 28.3332 115.823 28.4832C115.946 28.4061 116.113 28.3656 116.188 28.2454C116.494 27.7576 116.769 27.2428 117.059 26.7415C118.664 23.9608 120.568 21.5287 122.975 19.6843C123.501 19.2804 124.045 18.9088 124.582 18.5223C124.621 18.5088 124.66 18.4953 124.7 18.4818C124.737 18.4494 124.775 18.4156 124.812 18.3832C124.851 18.371 124.89 18.3575 124.929 18.3453C124.966 18.3129 125.003 18.2805 125.04 18.2481C125.079 18.24 125.117 18.2305 125.156 18.2224C125.199 18.1886 125.244 18.1548 125.288 18.121C125.321 18.117 125.353 18.1089 125.385 18.0967C125.433 18.0616 125.481 18.0265 125.531 17.9913C125.598 17.9711 125.666 17.9495 125.735 17.9292C125.768 17.8995 125.802 17.8697 125.835 17.84C125.878 17.8292 125.919 17.8197 125.961 17.8089C126.004 17.7765 126.045 17.7454 126.088 17.713C126.161 17.6968 126.234 17.6792 126.308 17.663C126.343 17.6319 126.377 17.6022 126.413 17.5711C126.453 17.5644 126.493 17.5576 126.533 17.5509C126.583 17.5184 126.633 17.4846 126.682 17.4522L126.678 17.4468Z" fill="#262724"/>
<path d="M171.022 88.0057C170.514 88.1246 169.983 88.0732 169.455 88.0435C169.274 88.034 169.19 87.8814 169.182 87.6773C169.173 87.4747 169.17 87.272 169.17 87.0707C169.17 85.3817 169.17 83.6941 169.17 82.0051C169.17 81.7619 169.17 81.5174 169.081 81.2498C169.012 81.4201 168.936 81.5863 168.877 81.7606C168.451 83.0374 168.03 84.317 167.603 85.5938C167.394 86.2167 167.369 86.2127 166.869 86.2289C166.532 86.2383 166.35 86.0843 166.232 85.7114C165.823 84.4264 165.392 83.1523 164.967 81.8741C164.884 81.6255 164.796 81.3782 164.628 81.135C164.616 81.2944 164.593 81.4539 164.593 81.6146C164.591 83.4603 164.593 85.306 164.591 87.1517C164.591 87.4166 164.571 87.6814 164.562 87.9246C164.028 88.1273 163.251 88.1246 162.754 87.9205V76.1505C163.382 76.0208 163.989 76.0546 164.588 76.1235C164.712 76.1384 164.853 76.4167 164.92 76.6059C165.211 77.4368 165.478 78.2813 165.754 79.1204C166.085 80.127 166.415 81.135 166.749 82.1402C166.796 82.2821 166.857 82.4186 166.947 82.6483C167.053 82.3916 167.135 82.2227 167.195 82.043C167.752 80.3675 168.299 78.6867 168.862 77.0139C169.208 75.9843 169.05 76.0843 170.052 76.0789C170.371 76.0776 170.69 76.0978 170.991 76.1073C171.129 76.6896 171.152 87.2625 171.022 88.0057Z" fill="#262724"/>
<path d="M89.6855 76.4676C89.7577 76.4243 89.791 76.3878 89.8242 76.3878C91.1204 76.3608 92.4199 76.2284 93.7069 76.4878C95.0523 76.7594 96.109 78.243 96.1777 79.8509C96.2373 81.2358 95.8614 82.3668 94.8816 83.1815C94.8197 83.2329 94.7555 83.2815 94.673 83.345C95.254 84.9907 95.8156 86.5824 96.3966 88.2308C96.2247 88.2835 96.1055 88.3497 95.9852 88.3524C95.5085 88.3632 95.0306 88.3416 94.5538 88.3578C94.2364 88.3686 94.0714 88.2065 93.9682 87.8579C93.6737 86.8594 93.3574 85.8703 93.0491 84.8772C92.7534 83.926 92.6469 83.8639 91.7335 84.149C91.6212 85.4866 91.7518 86.8567 91.6647 88.1984C91.2097 88.393 90.3181 88.4159 89.7291 88.2619C89.5962 87.7849 89.5537 77.3877 89.6855 76.4689V76.4676ZM91.7232 82.0573C92.844 82.2992 93.5385 82.0411 93.9292 81.2818C94.2742 80.6116 94.2215 79.6698 93.8066 79.0686C93.3986 78.4767 92.5449 78.2916 91.7232 78.6389V82.0573Z" fill="#262724"/>
<path d="M147.851 76.1177H149.741C149.766 76.338 149.806 76.5299 149.806 76.7217C149.811 80.2766 149.812 83.8316 149.81 87.3851C149.81 88.0229 149.772 88.0567 149.214 88.0688C148.927 88.0756 148.641 88.0756 148.356 88.0688C147.81 88.0553 147.761 88.0067 147.756 87.3757C147.748 86.2056 147.755 85.0355 147.754 83.8654C147.754 83.6856 147.753 83.5046 147.742 83.3262C147.731 83.1236 147.648 82.979 147.463 82.9736C146.743 82.9506 146.023 82.9263 145.258 82.9938C145.156 84.6842 145.276 86.3204 145.184 88.0013C144.509 88.1134 143.877 88.0945 143.256 88.0175C143.123 87.4162 143.116 76.8068 143.248 76.1259C143.849 76.0286 144.469 76.0732 145.156 76.1029C145.178 76.3664 145.213 76.6028 145.214 76.8379C145.221 77.8283 145.217 78.8174 145.218 79.8078C145.218 80.051 145.218 80.2942 145.218 80.5631C145.395 80.6158 145.519 80.682 145.643 80.6847C146.177 80.6969 146.712 80.7023 147.245 80.6888C147.683 80.6779 147.737 80.6131 147.75 80.0969C147.778 79.0633 147.793 78.0297 147.815 76.9947C147.82 76.7298 147.836 76.465 147.85 76.1164L147.851 76.1177Z" fill="#262724"/>
<path d="M159.658 82.0536C159.658 82.7954 159.658 83.5386 159.658 84.2804C159.659 87.2327 157.513 88.469 155.704 88.1501C154.728 87.9785 153.935 87.4799 153.386 86.4949C153.053 85.8964 152.89 85.2262 152.884 84.5182C152.871 82.9441 152.861 81.3686 152.888 79.7945C152.926 77.4813 154.285 75.9382 156.256 75.9355C156.578 75.9355 156.907 75.9585 157.219 76.0396C158.658 76.4125 159.577 77.6853 159.643 79.4229C159.677 80.2985 159.649 81.1767 159.649 82.0536C159.652 82.0536 159.655 82.0536 159.658 82.0536ZM157.598 82.1536C157.598 82.1536 157.605 82.1536 157.608 82.1536C157.608 81.7267 157.61 81.2997 157.608 80.8741C157.606 80.4255 157.618 79.9742 157.591 79.527C157.532 78.5717 157.049 78.0677 156.238 78.088C155.499 78.1055 155.001 78.6595 154.952 79.5634C154.922 80.1228 154.935 80.6863 154.937 81.247C154.937 82.3252 154.93 83.4035 154.949 84.4803C154.961 85.133 155.19 85.6491 155.734 85.9139C156.533 86.3017 157.6 85.7761 157.598 84.5114C157.597 83.725 157.598 82.94 157.598 82.1536Z" fill="#262724"/>
<path d="M66.3031 89.9846C65.0871 90.0076 63.8941 90.0049 62.6438 89.9819C62.6175 89.7549 62.5762 89.5644 62.5762 89.3739C62.5728 85.1907 62.5739 81.0075 62.5785 76.8243C62.5785 76.6513 62.6117 76.477 62.6278 76.3189C63.0896 76.1798 65.5593 76.1487 66.3031 76.2743C66.3226 76.4446 66.3627 76.6351 66.3627 76.8256C66.3673 81.0088 66.3673 85.1921 66.365 89.3753C66.365 89.5482 66.3306 89.7225 66.3042 89.9833L66.3031 89.9846Z" fill="#262724"/>
<path d="M129.086 88.3423C128.383 88.3423 127.798 88.3504 127.212 88.3382C127.006 88.3341 126.933 88.1328 126.884 87.9302C126.762 87.41 126.646 86.8884 126.522 86.3695C126.397 85.8466 126.375 85.8142 125.948 85.8088C125.188 85.798 124.429 85.8061 123.619 85.8061C123.488 86.3452 123.369 86.8357 123.249 87.3275C123.192 87.5653 123.156 87.8153 123.071 88.0369C123.022 88.1598 122.897 88.3125 122.795 88.3233C122.231 88.3882 121.663 88.3733 121.055 88.3287C121.082 88.1004 121.084 87.9464 121.121 87.8058C122.062 84.1739 123.005 80.5433 123.953 76.9127C124.085 76.406 124.117 76.3831 124.55 76.3668C124.855 76.3547 125.161 76.3601 125.466 76.3641C126.019 76.3723 126.026 76.3723 126.187 76.983C126.504 78.1842 126.811 79.3894 127.124 80.5933C127.704 82.8281 128.286 85.0616 128.864 87.2978C128.939 87.5924 128.992 87.895 129.086 88.3436V88.3423ZM125.988 83.9496C125.661 82.5593 125.359 81.2783 125.041 79.9245C124.746 80.5501 124.097 83.301 124.08 83.9618C124.675 84.0509 125.27 84.0455 125.989 83.9496H125.988Z" fill="#262724"/>
<path d="M81.4481 76.4043H86.8C86.9398 77.0826 86.8687 77.7244 86.8573 78.4338C86.2957 78.5878 85.7445 78.4946 85.2024 78.5108C84.6523 78.527 84.1022 78.5148 83.5751 78.5148C83.4078 79.0918 83.394 80.4511 83.5464 81.182H86.1605C86.3393 81.7617 86.353 82.4494 86.2144 83.1601C85.3365 83.3331 84.4174 83.1129 83.4857 83.2939V86.1408C83.7057 86.1597 83.9074 86.1922 84.1091 86.1935C84.8345 86.2003 85.56 86.1935 86.2843 86.1989C86.4882 86.2003 86.6911 86.2273 86.9363 86.2462V88.2149C86.4986 88.4 82.0612 88.4324 81.4675 88.2635C81.3426 87.7636 81.3128 77.2636 81.4481 76.4043Z" fill="#262724"/>
<path d="M119.052 80.5835C118.392 80.6713 117.795 80.6849 117.198 80.5808C117.128 80.1322 117.092 79.7296 116.999 79.3458C116.85 78.7365 116.468 78.4325 115.941 78.3825C115.203 78.3135 114.633 78.8148 114.613 79.685C114.572 81.4604 114.578 83.2386 114.611 85.014C114.626 85.7896 115.087 86.2773 115.702 86.3314C116.377 86.3908 116.859 86.0179 117.03 85.2491C117.116 84.8627 117.131 84.4533 117.187 83.9804C117.771 83.8466 118.369 83.9155 119.03 83.9412C119.049 84.2371 119.086 84.4965 119.082 84.7559C119.03 87.6231 117.058 88.7432 115.311 88.4581C113.913 88.2298 112.953 87.3542 112.612 85.6801C112.55 85.3775 112.532 85.0559 112.53 84.7438C112.522 83.1669 112.522 81.5915 112.527 80.0147C112.533 78.4879 113.056 77.2786 114.251 76.63C115.514 75.9436 116.798 75.9801 117.937 77.0002C118.904 77.8663 119.165 79.1094 119.053 80.5835H119.052Z" fill="#262724"/>
<path d="M174.34 76.1743C174.988 76.0297 179.268 76.0513 179.754 76.1972C179.819 76.8404 179.837 77.4971 179.728 78.2416H176.419C176.316 79.1455 176.364 79.9629 176.381 80.8453C176.632 80.8709 176.834 80.9061 177.037 80.9088C177.609 80.9169 178.182 80.9034 178.754 80.9169C179.159 80.9277 179.201 80.9871 179.22 81.4749C179.229 81.6992 179.226 81.9248 179.222 82.1491C179.211 82.8058 179.183 82.845 178.644 82.8531C178.11 82.8612 177.576 82.8504 177.041 82.8585C176.839 82.8612 176.635 82.8963 176.399 82.9193V85.8675C177.521 85.9851 178.623 85.8581 179.762 85.9486C179.879 86.6296 179.832 87.2687 179.803 87.9835C179.602 88.0146 179.422 88.0646 179.242 88.0659C177.792 88.0727 176.342 88.074 174.893 88.0673C174.335 88.0646 174.299 88.024 174.299 87.3849C174.296 83.8543 174.297 80.3224 174.299 76.7918C174.299 76.5945 174.324 76.3959 174.34 76.1743Z" fill="#262724"/>
<path d="M79.0272 76.3784C78.9848 76.6405 78.9699 76.8162 78.9275 76.9837C78.0256 80.54 77.1225 84.0963 76.2148 87.6512C76.0338 88.3606 76.0246 88.3714 75.3714 88.3592C74.9565 88.3525 74.5428 88.2971 74.1291 88.2633C73.995 87.8215 73.846 87.3864 73.7303 86.9378C72.8834 83.6437 72.0422 80.3482 71.2022 77.0513C71.1586 76.8824 71.1334 76.7068 71.0898 76.4825C71.2297 76.4392 71.3488 76.3744 71.4692 76.3703C71.8886 76.3568 72.3092 76.3568 72.7298 76.3649C73.2547 76.3744 73.273 76.3852 73.4197 77.027C73.8621 78.9605 74.2953 80.8954 74.7353 82.8303C74.8373 83.2802 74.9485 83.7261 75.1502 84.1666C75.2018 83.9828 75.2602 83.8004 75.3038 83.6139C75.7966 81.4872 76.287 79.3605 76.7787 77.2324C76.8188 77.0594 76.836 76.8675 76.9116 76.7189C76.9827 76.5824 77.1145 76.4027 77.2256 76.396C77.8101 76.3636 78.3969 76.3811 79.0283 76.3811L79.0272 76.3784Z" fill="#262724"/>
<path d="M188.412 78.4471C187.868 78.7052 187.363 78.9443 186.838 79.1943C186.73 78.9957 186.669 78.8268 186.566 78.7065C186.353 78.4579 186.144 78.1782 185.886 78.0134C185.45 77.7337 184.922 77.8918 184.643 78.3039C184.355 78.7282 184.36 79.3294 184.732 79.7821C185.049 80.1658 185.428 80.4793 185.792 80.8008C186.097 81.0697 186.435 81.2873 186.735 81.5643C187.034 81.8399 187.304 82.1601 187.587 82.4614C188.541 83.4802 188.554 85.7826 187.766 86.8744C187.311 87.504 186.737 87.9215 186.07 88.0445C184.422 88.3485 183.137 87.9323 182.158 85.9353C182.111 85.838 182.074 85.734 182.039 85.6286C181.948 85.3489 182.015 85.1489 182.256 85.0354C182.662 84.8462 183.066 84.6544 183.511 84.4449C183.645 84.7071 183.759 84.9354 183.877 85.1597C184.083 85.5516 184.343 85.8745 184.713 86.0474C185.218 86.2839 185.771 86.1231 186.055 85.6637C186.33 85.2178 186.314 84.4841 185.949 84.0409C185.634 83.6572 185.26 83.337 184.897 83.0087C184.459 82.6128 183.979 82.2736 183.567 81.8426C183.244 81.5048 182.946 81.1008 182.725 80.6644C181.866 78.9741 182.454 76.9365 183.993 76.1717C185.301 75.5205 186.887 75.8677 187.745 77.0095C188.035 77.3959 188.291 77.8161 188.412 78.4471Z" fill="#262724"/>
<path d="M104.617 76.4248V78.5029C103.973 78.7677 103.307 78.4839 102.624 78.7109C102.609 78.9636 102.582 79.2244 102.582 79.4852C102.579 82.1416 102.582 84.798 102.579 87.4544C102.579 87.7178 102.56 87.9827 102.549 88.2961C101.867 88.4042 101.233 88.388 100.53 88.3029C100.481 86.668 100.516 85.0763 100.51 83.4873C100.504 81.9146 100.509 80.3431 100.509 78.7015C100.277 78.669 100.096 78.6285 99.915 78.6218C99.5334 78.6082 99.1517 78.6137 98.7701 78.6123C98.5214 78.611 98.3679 78.4839 98.3656 78.1718C98.3621 77.7219 98.3633 77.2719 98.3644 76.822C98.3644 76.5153 98.5042 76.3734 98.7575 76.3707C98.8721 76.3707 98.9867 76.364 99.1013 76.364C100.724 76.364 102.347 76.3613 103.97 76.3667C104.174 76.3667 104.376 76.4031 104.618 76.4275L104.617 76.4248Z" fill="#262724"/>
<path d="M131.536 88.2484C131.416 87.6836 131.411 77.0756 131.544 76.4176C132.165 76.3311 132.799 76.3284 133.513 76.4325V86.0163C134.598 86.2082 135.63 85.9893 136.686 86.1595C136.755 86.8824 136.743 87.5634 136.697 88.2282C136.166 88.4038 132.036 88.4065 131.536 88.2498V88.2484Z" fill="#262724"/>
<path d="M109.415 88.3012C109.243 88.3296 109.114 88.3687 108.986 88.3701C108.454 88.3768 107.923 88.3728 107.33 88.3728C107.307 88.1053 107.273 87.8918 107.272 87.6783C107.268 84.1261 107.269 80.5752 107.272 77.023C107.272 76.8271 107.301 76.6325 107.321 76.3906H109.391C109.411 76.5852 109.45 76.7771 109.45 76.9689C109.454 80.5657 109.454 84.1625 109.453 87.7594C109.453 87.9147 109.431 88.0701 109.414 88.3012H109.415Z" fill="#262724"/>
<path d="M197.81 79.8336C197.853 81.9373 196.419 84.1438 194.051 84.1222C192.036 84.1046 190.366 82.317 190.375 79.789C190.383 77.3298 192.065 75.5503 194.121 75.5449C196.186 75.5395 197.825 77.4082 197.81 79.8322V79.8336ZM194.07 76.4259C192.533 76.4151 191.277 77.9095 191.306 79.8457C191.34 82.2062 192.855 83.2452 194.165 83.2344C195.689 83.2209 196.892 81.7265 196.892 79.8444C196.892 77.8933 195.671 76.4137 194.071 76.4273L194.07 76.4259Z" fill="#262724"/>
<path d="M193.432 10.1261C188.28 10.1288 183.129 10.1342 177.976 10.1356C172.29 10.1356 166.603 10.1329 160.918 10.1315C160.879 10.1031 160.839 10.0734 160.8 10.045C160.543 9.95586 160.385 9.75454 160.311 9.45593C160.283 9.31811 160.255 9.18029 160.227 9.04247V0.0544971C160.484 0.0342296 160.704 0.00315273 160.923 0.00180156C162.775 -0.00225195 164.627 0.00180156 166.479 0.00180156C175.548 0.00180156 184.617 0.00180156 193.686 0.00180156C193.949 0.00180156 194.213 0.00180156 194.545 0.00180156C194.626 2.24744 194.538 4.42418 194.589 6.59686C194.56 7.19002 194.533 7.78318 194.504 8.37635C194.498 8.5547 194.477 8.73305 194.489 8.90871C194.515 9.27758 194.416 9.56132 194.14 9.75048C194.097 9.78697 194.055 9.82345 194.014 9.85993C193.978 9.86668 193.944 9.87749 193.91 9.89101C193.866 9.92478 193.822 9.95856 193.777 9.99099C193.706 10.0032 193.636 10.0167 193.565 10.0288C193.521 10.0613 193.476 10.0937 193.431 10.1261H193.432Z" fill="#262724"/>
<path d="M193.515 81.97H192.734C192.71 81.7552 192.675 81.5809 192.674 81.4079C192.668 80.3946 192.664 79.3812 192.674 78.3678C192.679 77.7841 192.733 77.7206 193.241 77.6963C193.68 77.676 194.12 77.6639 194.558 77.6936C194.78 77.7084 195.017 77.7787 195.212 77.9017C195.8 78.2719 195.863 79.1407 195.355 79.6487C195.269 79.7352 195.17 79.8014 195.039 79.9081C195.575 80.4365 195.62 81.1863 195.791 81.9835C195.572 81.9943 195.392 82.0092 195.213 82.0119C195.013 82.016 194.896 81.8822 194.842 81.6647C194.783 81.4269 194.742 81.1823 194.673 80.9499C194.595 80.6851 194.46 80.4783 194.207 80.4081C193.749 80.2811 193.576 80.431 193.555 80.9904C193.543 81.2998 193.53 81.6079 193.515 81.97ZM193.612 79.4947C193.901 79.6555 194.162 79.6257 194.417 79.5325C194.63 79.4541 194.81 79.265 194.77 78.9988C194.741 78.8096 194.607 78.5935 194.467 78.4867C194.22 78.2989 193.93 78.3421 193.613 78.4556V79.4933L193.612 79.4947Z" fill="#262724"/>
</g>
<defs>
<clipPath id="clip0_1842_7751">
<rect width="200" height="90" fill="white"/>
</clipPath>
</defs>
</svg>
