<?xml version="1.0" encoding="UTF-8"?>
<svg xmlns="http://www.w3.org/2000/svg" xmlns:xlink="http://www.w3.org/1999/xlink" width="225px" height="167px" viewBox="0 0 225 167" version="1.1">
<g id="surface1">
<path style=" stroke:none;fill-rule:nonzero;fill:rgb(0.784314%,12.941177%,30.980393%);fill-opacity:1;" d="M 223.796875 13.992188 C 222.34375 12.566406 212.296875 2.671875 210.226562 0.636719 C 209.980469 0.402344 209.855469 0.265625 209.855469 0.265625 C 209.855469 0.265625 209.703125 -0.257812 207.171875 0.15625 L 195.984375 2.6875 L 193.367188 8.476562 L 188.421875 8.773438 L 173.574219 9.648438 L 173.164062 11.804688 L 171.234375 9.828125 L 171.152344 9.9375 L 171.175781 9.792969 L 156.332031 10.671875 L 156.015625 12.324219 C 154.855469 11.3125 153.363281 10.816406 151.695312 10.914062 L 134.453125 11.9375 C 132.492188 12.054688 130.6875 12.929688 129.09375 14.535156 C 127.59375 16.042969 126.632812 17.84375 126.242188 19.890625 L 125.203125 25.300781 L 115.53125 15.367188 L 115.5 15.40625 C 115.179688 14.898438 114.785156 14.4375 114.324219 14.039062 C 113.125 13.007812 111.609375 12.515625 109.929688 12.609375 L 106.148438 12.828125 C 104.65625 12.910156 103.203125 13.453125 101.828125 14.425781 C 100.621094 15.289062 99.613281 16.386719 98.828125 17.703125 L 94.789062 13.554688 L 94.457031 13.90625 L 94.75 13.480469 L 78.234375 14.425781 L 75.242188 18.824219 L 74.1875 14.652344 L 58.964844 15.523438 L 61.398438 24.992188 L 55.289062 18.71875 C 54.980469 18.257812 54.617188 17.835938 54.191406 17.46875 C 52.992188 16.4375 51.476562 15.945312 49.796875 16.035156 L 46.015625 16.253906 C 44.53125 16.335938 43.078125 16.875 41.710938 17.84375 L 40.648438 16.5625 L 40.625 16.59375 L 40.640625 16.5625 L 24.050781 17.507812 L 20.789062 23.96875 L 15.949219 18.148438 L 15.921875 18.210938 L 15.90625 17.96875 L 0.25 18.917969 L 3.296875 52.929688 L 3.3125 53.066406 C 3.546875 54.726562 4.28125 56.132812 5.433594 57.140625 C 5.558594 57.246094 5.683594 57.347656 5.820312 57.445312 C 5.792969 57.523438 5.777344 57.5625 5.777344 57.5625 L 16.746094 67.898438 L 21.769531 108.4375 L 21.789062 108.570312 C 22.03125 109.9375 22.53125 111.117188 23.296875 112.105469 C 23.3125 112.140625 23.335938 112.164062 23.355469 112.199219 L 23.390625 112.242188 C 23.429688 112.296875 23.480469 112.351562 23.53125 112.40625 L 34.59375 125.277344 C 35.554688 126.476562 36.1875 127.234375 36.226562 127.28125 C 36.234375 127.289062 36.253906 127.296875 36.261719 127.304688 C 36.429688 127.507812 36.613281 127.695312 36.824219 127.875 C 37.292969 128.351562 38.578125 128.929688 39.242188 128.886719 L 39.382812 128.886719 C 39.582031 128.886719 39.785156 128.886719 40 128.886719 L 44.773438 128.609375 C 46.015625 128.546875 47.222656 128.085938 48.40625 127.226562 C 49.585938 126.375 50.546875 125.277344 51.273438 123.921875 L 54.351562 117.761719 L 63.273438 126.777344 C 63.742188 127.253906 64.398438 127.496094 65.0625 127.460938 L 67.382812 127.320312 L 79.175781 126.640625 L 82.246094 120.109375 L 87.546875 119.804688 L 92.8125 125.125 C 93.28125 125.601562 93.9375 125.84375 94.601562 125.8125 L 99.773438 125.492188 L 99.75 125.460938 L 103.414062 125.25 L 99.414062 146.054688 C 99.414062 146.054688 99.414062 146.046875 99.40625 146.039062 C 99.3125 145.945312 99.210938 145.859375 99.109375 145.777344 C 99.007812 145.660156 98.917969 145.542969 98.808594 145.445312 C 97.8125 144.460938 96.460938 143.96875 95.015625 144.054688 C 92 144.226562 89.703125 146.824219 89.550781 150.210938 C 89.46875 152.085938 90.0625 153.746094 91.210938 154.882812 C 91.304688 154.976562 91.414062 155.070312 91.515625 155.152344 C 91.605469 155.261719 91.703125 155.378906 91.804688 155.480469 C 91.898438 155.570312 92.007812 155.664062 92.109375 155.75 C 92.203125 155.859375 92.300781 155.976562 92.402344 156.074219 C 92.492188 156.164062 92.601562 156.257812 92.703125 156.34375 C 92.796875 156.453125 92.898438 156.570312 93 156.671875 C 93.089844 156.761719 93.199219 156.851562 93.296875 156.9375 C 93.390625 157.046875 93.492188 157.164062 93.59375 157.265625 C 93.6875 157.355469 93.792969 157.449219 93.894531 157.53125 C 93.984375 157.640625 94.085938 157.757812 94.1875 157.859375 C 94.28125 157.953125 94.390625 158.042969 94.492188 158.125 C 94.582031 158.234375 94.683594 158.351562 94.78125 158.453125 C 94.875 158.546875 94.984375 158.640625 95.085938 158.722656 C 95.179688 158.828125 95.277344 158.949219 95.378906 159.046875 C 95.46875 159.140625 95.578125 159.234375 95.679688 159.316406 C 95.773438 159.425781 95.875 159.542969 95.976562 159.644531 C 96.066406 159.734375 96.175781 159.828125 96.273438 159.914062 C 96.367188 160.019531 96.46875 160.140625 96.570312 160.238281 C 96.664062 160.328125 96.773438 160.421875 96.871094 160.507812 C 96.960938 160.617188 97.0625 160.734375 97.164062 160.835938 C 97.257812 160.925781 97.367188 161.015625 97.46875 161.101562 C 97.558594 161.210938 97.660156 161.328125 97.757812 161.429688 C 97.851562 161.519531 97.960938 161.609375 98.0625 161.695312 C 98.15625 161.804688 98.257812 161.921875 98.355469 162.023438 C 98.445312 162.117188 98.554688 162.207031 98.65625 162.289062 C 98.75 162.398438 98.851562 162.515625 98.953125 162.617188 C 99.042969 162.710938 99.152344 162.804688 99.253906 162.886719 C 99.34375 162.992188 99.445312 163.109375 99.546875 163.210938 C 99.640625 163.304688 99.75 163.398438 99.851562 163.480469 C 99.941406 163.589844 100.039062 163.707031 100.140625 163.804688 C 100.234375 163.898438 100.34375 163.992188 100.445312 164.078125 C 100.539062 164.183594 100.636719 164.300781 100.738281 164.402344 C 100.828125 164.492188 100.9375 164.585938 101.039062 164.671875 C 101.132812 164.78125 101.234375 164.898438 101.335938 164.996094 C 101.425781 165.089844 101.535156 165.179688 101.632812 165.265625 C 101.726562 165.375 101.828125 165.492188 101.929688 165.59375 C 102.851562 166.507812 104.078125 166.992188 105.382812 166.992188 C 105.484375 166.992188 105.59375 166.992188 105.703125 166.984375 C 108.101562 166.839844 109.996094 165.25 110.785156 162.921875 C 110.835938 162.960938 110.875 163.011719 110.929688 163.054688 C 111.109375 163.273438 111.3125 163.464844 111.523438 163.648438 C 112.664062 164.953125 114.222656 165.65625 116.015625 165.65625 C 116.152344 165.65625 116.296875 165.65625 116.4375 165.648438 L 136.421875 164.460938 L 136.75 162.726562 C 137.820312 163.679688 139.179688 164.195312 140.710938 164.195312 C 140.84375 164.195312 140.984375 164.195312 141.125 164.183594 L 158.371094 163.164062 C 159.402344 163.101562 160.382812 162.828125 161.3125 162.359375 L 161.875 162.324219 L 161.75 162.960938 L 176.59375 162.082031 L 177.148438 159.242188 C 177.222656 159.316406 177.304688 159.390625 177.390625 159.46875 C 177.617188 159.726562 177.859375 159.96875 178.128906 160.195312 C 179.4375 161.292969 181.03125 161.820312 182.742188 161.71875 L 186.808594 161.476562 C 187.976562 161.414062 189.082031 161.050781 190.105469 160.414062 L 190.0625 160.648438 L 190.785156 160.609375 L 190.65625 161.242188 L 205.5 160.363281 L 213.152344 120.652344 L 212.429688 120.695312 L 212.554688 120.054688 L 211.835938 120.101562 L 211.960938 119.460938 L 211.242188 119.503906 L 211.332031 119.042969 L 211.820312 119.015625 C 214.570312 118.859375 216.617188 116.40625 216.265625 113.664062 L 211.875 79.867188 L 211.792969 79.203125 C 211.785156 79.15625 211.765625 79.105469 211.757812 79.054688 L 210.777344 72.3125 C 210.753906 72.140625 210.710938 71.976562 210.644531 71.816406 C 210.023438 70.367188 209.175781 69.453125 208.101562 68.347656 L 195.5 55.664062 L 213.511719 54.59375 L 215.390625 44.738281 L 214.671875 44.78125 L 214.796875 44.140625 L 214.074219 44.1875 L 214.199219 43.546875 L 213.476562 43.589844 L 213.601562 42.953125 L 212.882812 42.996094 L 213.007812 42.359375 L 212.289062 42.398438 L 212.414062 41.765625 L 211.691406 41.804688 L 211.820312 41.171875 L 211.289062 41.203125 L 212.90625 32.824219 L 212.1875 32.867188 L 212.3125 32.230469 L 211.59375 32.273438 L 211.71875 31.632812 L 210.996094 31.679688 L 211.121094 31.039062 L 210.398438 31.082031 L 210.484375 30.664062 L 218.21875 30.203125 L 219.171875 25.25 L 220.671875 25.132812 L 221.394531 25.074219 C 221.703125 24.949219 222.101562 24.589844 222.320312 23.648438 C 222.71875 21.898438 224.472656 16.378906 224.472656 16.378906 C 224.472656 16.378906 225.421875 15.59375 223.804688 13.992188 Z M 223.796875 13.992188 "/>
<path style=" stroke:none;fill-rule:nonzero;fill:rgb(100%,100%,100%);fill-opacity:1;" d="M 199.078125 5.414062 L 207.792969 3.445312 L 206.265625 7.992188 L 197.617188 8.648438 Z M 199.078125 5.414062 "/>
<path style=" stroke:none;fill-rule:nonzero;fill:rgb(97.647059%,35.294119%,20.784314%);fill-opacity:1;" d="M 38.828125 95.476562 L 51.75 68.023438 L 64.707031 67.273438 L 44.257812 108.261719 C 43.53125 109.617188 42.574219 110.71875 41.390625 111.570312 C 40.210938 112.425781 39 112.886719 37.761719 112.953125 L 32.988281 113.230469 C 31.75 113.304688 30.691406 112.960938 29.8125 112.21875 C 28.929688 111.46875 28.375 110.449219 28.148438 109.148438 L 23.257812 69.65625 L 36.183594 68.917969 Z M 38.828125 95.476562 "/>
<path style=" stroke:none;fill-rule:nonzero;fill:rgb(97.647059%,35.294119%,20.784314%);fill-opacity:1;" d="M 77.246094 66.0625 L 82.015625 65.78125 C 83.257812 65.710938 84.3125 66.042969 85.195312 66.773438 C 86.078125 67.507812 86.628906 68.523438 86.855469 69.820312 L 91.988281 109.332031 L 79.0625 110.078125 L 78.445312 103.753906 L 66.570312 104.429688 L 63.5 110.96875 L 50.542969 111.710938 L 70.753906 70.777344 C 71.484375 69.421875 72.4375 68.3125 73.625 67.453125 C 74.804688 66.585938 76.011719 66.117188 77.253906 66.050781 Z M 72.699219 91.414062 L 77.171875 91.152344 L 76.421875 83.5625 L 72.710938 91.414062 Z M 72.699219 91.414062 "/>
<path style=" stroke:none;fill-rule:nonzero;fill:rgb(97.647059%,35.294119%,20.784314%);fill-opacity:1;" d="M 108.992188 95.6875 L 126.480469 94.679688 L 124.0625 107.5 L 106.585938 108.507812 L 94.257812 109.210938 L 102.765625 64.59375 L 115.054688 63.890625 L 109 95.6875 Z M 108.992188 95.6875 "/>
<path style=" stroke:none;fill-rule:nonzero;fill:rgb(97.647059%,35.294119%,20.784314%);fill-opacity:1;" d="M 141.78125 93.808594 L 159.265625 92.804688 L 156.851562 105.621094 L 139.375 106.625 L 127.046875 107.328125 L 135.550781 62.71875 L 147.84375 62.015625 L 141.789062 93.808594 Z M 141.78125 93.808594 "/>
<path style=" stroke:none;fill-rule:nonzero;fill:rgb(97.647059%,35.294119%,20.784314%);fill-opacity:1;" d="M 186.515625 59.796875 L 191.285156 59.515625 C 192.527344 59.453125 193.585938 59.777344 194.460938 60.507812 C 195.34375 61.242188 195.898438 62.257812 196.125 63.554688 L 201.257812 103.066406 L 188.332031 103.8125 L 187.710938 97.484375 L 175.835938 98.164062 L 172.765625 104.703125 L 159.8125 105.445312 L 180.023438 64.511719 C 180.75 63.15625 181.707031 62.046875 182.890625 61.1875 C 184.070312 60.320312 185.28125 59.851562 186.523438 59.785156 Z M 181.96875 85.140625 L 186.4375 84.878906 L 185.691406 77.289062 L 181.976562 85.140625 Z M 181.96875 85.140625 "/>
<path style=" stroke:none;fill-rule:nonzero;fill:rgb(100%,100%,100%);fill-opacity:1;" d="M 93.179688 151.460938 C 93.273438 149.4375 94.5 147.957031 96.125 147.867188 C 97.75 147.765625 98.808594 149.121094 98.71875 151.132812 C 98.632812 153.09375 97.5 154.625 95.773438 154.726562 C 94.148438 154.828125 93.089844 153.421875 93.179688 151.460938 Z M 93.179688 151.460938 "/>
<path style=" stroke:none;fill-rule:nonzero;fill:rgb(100%,100%,100%);fill-opacity:1;" d="M 108.414062 125.9375 C 108.710938 124.414062 109.414062 123.09375 110.539062 121.96875 C 111.660156 120.835938 112.859375 120.242188 114.152344 120.15625 L 132.03125 119.09375 L 130.125 128.972656 L 117.90625 129.703125 C 117.640625 129.71875 117.382812 129.84375 117.136719 130.078125 C 116.894531 130.3125 116.742188 130.589844 116.683594 130.914062 L 114.335938 143.179688 C 114.277344 143.5 114.320312 143.777344 114.46875 143.992188 C 114.621094 144.210938 114.828125 144.320312 115.101562 144.304688 L 127.320312 143.578125 L 125.4375 153.429688 L 107.542969 154.492188 C 106.25 154.570312 105.261719 154.097656 104.554688 153.078125 C 103.851562 152.054688 103.652344 150.789062 103.945312 149.265625 L 108.429688 125.9375 Z M 108.414062 125.9375 "/>
<path style=" stroke:none;fill-rule:nonzero;fill:rgb(100%,100%,100%);fill-opacity:1;" d="M 138.855469 118.71875 L 156.097656 117.695312 C 157.382812 117.621094 158.378906 118.089844 159.085938 119.109375 C 159.789062 120.132812 159.988281 121.398438 159.695312 122.921875 L 155.210938 146.222656 C 154.914062 147.75 154.210938 149.070312 153.085938 150.195312 C 151.960938 151.328125 150.765625 151.921875 149.472656 152.003906 L 132.226562 153.027344 C 130.9375 153.101562 129.949219 152.632812 129.242188 151.609375 C 128.539062 150.585938 128.335938 149.324219 128.632812 147.796875 L 133.117188 124.5 C 133.414062 122.976562 134.117188 121.648438 135.242188 120.527344 C 136.363281 119.398438 137.5625 118.804688 138.855469 118.71875 Z M 149.296875 128.984375 C 149.355469 128.664062 149.3125 128.394531 149.164062 128.179688 C 149.011719 127.96875 148.800781 127.867188 148.53125 127.882812 L 142.601562 128.234375 C 142.335938 128.25 142.078125 128.378906 141.832031 128.613281 C 141.589844 128.847656 141.4375 129.125 141.378906 129.453125 L 139.03125 141.71875 C 138.972656 142.035156 139.015625 142.3125 139.164062 142.53125 C 139.316406 142.746094 139.523438 142.855469 139.796875 142.835938 L 145.722656 142.484375 C 146 142.46875 146.25 142.335938 146.503906 142.09375 C 146.746094 141.851562 146.898438 141.5625 146.957031 141.246094 L 149.304688 128.984375 Z M 149.296875 128.984375 "/>
<path style=" stroke:none;fill-rule:nonzero;fill:rgb(100%,100%,100%);fill-opacity:1;" d="M 189.4375 118.828125 C 190.007812 117.855469 190.730469 117.070312 191.59375 116.457031 C 192.460938 115.84375 193.335938 115.515625 194.234375 115.46875 L 201.121094 115.054688 L 194.523438 149.332031 L 185.203125 149.882812 L 187.4375 138.265625 L 181.898438 147.640625 C 181.429688 148.429688 180.84375 149.0625 180.140625 149.53125 C 179.433594 150.007812 178.695312 150.269531 177.90625 150.3125 L 173.839844 150.554688 C 172.808594 150.613281 171.902344 150.3125 171.117188 149.65625 C 170.328125 148.996094 169.804688 148.109375 169.554688 146.992188 L 167.867188 139.429688 L 165.613281 151.046875 L 156.296875 151.601562 L 162.921875 117.328125 L 169.804688 116.917969 C 170.703125 116.867188 171.476562 117.09375 172.121094 117.613281 C 172.765625 118.132812 173.195312 118.851562 173.398438 119.78125 L 177.664062 138.792969 Z M 189.4375 118.828125 "/>
<path style=" stroke:none;fill-rule:nonzero;fill:rgb(100%,100%,100%);fill-opacity:1;" d="M 152.875 14.652344 C 154.15625 14.578125 155.15625 15.046875 155.859375 16.070312 C 156.5625 17.089844 156.765625 18.355469 156.46875 19.882812 L 151.984375 43.179688 C 151.726562 44.539062 151.121094 45.757812 150.15625 46.832031 C 149.191406 47.90625 148.125 48.578125 146.953125 48.84375 L 150.929688 48.609375 L 149.023438 58.484375 L 140.636719 58.980469 C 139.695312 59.039062 138.902344 58.78125 138.238281 58.210938 C 137.578125 57.640625 137.15625 56.851562 137 55.855469 L 135.957031 49.570312 L 129.007812 49.984375 C 127.714844 50.058594 126.726562 49.589844 126.019531 48.566406 C 125.316406 47.546875 125.113281 46.28125 125.40625 44.757812 L 129.894531 21.453125 C 130.1875 19.929688 130.890625 18.609375 132.015625 17.484375 C 133.140625 16.351562 134.339844 15.757812 135.632812 15.675781 Z M 146.078125 25.929688 C 146.140625 25.609375 146.097656 25.34375 145.945312 25.125 C 145.796875 24.914062 145.585938 24.8125 145.316406 24.832031 L 139.390625 25.183594 C 139.117188 25.203125 138.859375 25.328125 138.617188 25.5625 C 138.375 25.796875 138.222656 26.070312 138.164062 26.398438 L 135.8125 38.664062 C 135.757812 38.984375 135.796875 39.257812 135.949219 39.476562 C 136.101562 39.695312 136.3125 39.804688 136.578125 39.789062 L 142.507812 39.4375 C 142.785156 39.417969 143.039062 39.285156 143.289062 39.039062 C 143.53125 38.796875 143.679688 38.515625 143.742188 38.195312 L 146.089844 25.929688 Z M 146.078125 25.929688 "/>
<path style=" stroke:none;fill-rule:nonzero;fill:rgb(100%,100%,100%);fill-opacity:1;" d="M 172.378906 36.492188 L 176.84375 13.253906 L 186.15625 12.703125 L 180.640625 41.46875 C 180.347656 42.996094 179.640625 44.320312 178.515625 45.441406 C 177.394531 46.570312 176.195312 47.175781 174.90625 47.25 L 157.660156 48.273438 C 156.367188 48.351562 155.378906 47.882812 154.675781 46.859375 C 153.96875 45.835938 153.769531 44.570312 154.0625 43.046875 L 159.609375 14.273438 L 168.921875 13.722656 L 164.4375 36.96875 C 164.378906 37.289062 164.429688 37.566406 164.578125 37.78125 C 164.738281 38 164.949219 38.109375 165.226562 38.09375 L 171.15625 37.742188 C 171.429688 37.726562 171.683594 37.59375 171.9375 37.347656 C 172.179688 37.105469 172.328125 36.820312 172.390625 36.5 Z M 172.378906 36.492188 "/>
<path style=" stroke:none;fill-rule:nonzero;fill:rgb(100%,100%,100%);fill-opacity:1;" d="M 197.761719 12.015625 L 211.003906 11.226562 L 209.101562 21.101562 L 195.859375 21.890625 L 195.398438 24.226562 L 203.796875 23.726562 L 201.898438 33.578125 L 193.507812 34.074219 L 193.039062 36.4375 L 206.28125 35.648438 L 204.402344 45.5 L 181.828125 46.84375 L 183.058594 40.457031 L 183.730469 37 L 184.199219 34.632812 L 184.703125 31.976562 L 186.546875 22.453125 L 188.453125 12.578125 L 197.769531 12.023438 Z M 197.761719 12.015625 "/>
<path style=" stroke:none;fill-rule:nonzero;fill:rgb(100%,100%,100%);fill-opacity:1;" d="M 15.804688 42.914062 L 26.773438 21.1875 L 37.046875 20.601562 L 19.746094 53.03125 C 19.132812 54.105469 18.34375 54.976562 17.390625 55.65625 C 16.433594 56.328125 15.460938 56.695312 14.476562 56.753906 L 10.695312 56.96875 C 9.71875 57.03125 8.882812 56.761719 8.207031 56.175781 C 7.527344 55.589844 7.125 54.773438 6.972656 53.746094 L 4.171875 22.484375 L 14.421875 21.898438 L 15.796875 42.921875 Z M 15.804688 42.914062 "/>
<path style=" stroke:none;fill-rule:nonzero;fill:rgb(100%,100%,100%);fill-opacity:1;" d="M 47.195312 20.015625 L 50.976562 19.796875 C 51.960938 19.738281 52.789062 20.007812 53.46875 20.585938 C 54.148438 21.164062 54.558594 21.96875 54.703125 23 L 57.6875 54.273438 L 47.4375 54.859375 L 47.121094 49.859375 L 37.703125 50.394531 L 35.09375 55.5625 L 24.820312 56.148438 L 41.929688 23.75 C 42.539062 22.679688 43.328125 21.800781 44.285156 21.121094 C 45.242188 20.445312 46.214844 20.066406 47.195312 20.015625 Z M 42.902344 40.070312 L 46.449219 39.871094 L 46.0625 33.867188 L 42.910156 40.078125 Z M 42.902344 40.070312 "/>
<path style=" stroke:none;fill-rule:nonzero;fill:rgb(100%,100%,100%);fill-opacity:1;" d="M 75.117188 26.332031 L 80.71875 18.09375 L 90.476562 17.535156 L 77.710938 36.285156 L 73.878906 53.34375 L 64.125 53.90625 L 67.957031 36.871094 L 63.386719 19.09375 L 73.140625 18.53125 L 75.125 26.332031 Z M 75.117188 26.332031 "/>
<path style=" stroke:none;fill-rule:nonzero;fill:rgb(100%,100%,100%);fill-opacity:1;" d="M 107.3125 16.570312 L 111.09375 16.351562 C 112.074219 16.296875 112.90625 16.5625 113.585938 17.140625 C 114.265625 17.71875 114.671875 18.523438 114.816406 19.554688 L 117.804688 50.828125 L 107.554688 51.414062 L 107.234375 46.414062 L 97.816406 46.953125 L 95.210938 52.117188 L 84.9375 52.707031 L 102.035156 20.308594 C 102.648438 19.234375 103.4375 18.355469 104.390625 17.679688 C 105.347656 17 106.320312 16.625 107.304688 16.570312 Z M 103.023438 36.628906 L 106.570312 36.429688 L 106.1875 30.421875 L 103.03125 36.636719 Z M 103.023438 36.628906 "/>
</g>
</svg>
